<?xml version="1.0" standalone="no"?>
<!DOCTYPE svg PUBLIC "-//W3C//DTD SVG 1.1//EN" "http://www.w3.org/Graphics/SVG/1.1/DTD/svg11.dtd" >
<svg xmlns="http://www.w3.org/2000/svg" xmlns:xlink="http://www.w3.org/1999/xlink" version="1.1">
<metadata>
Created by FontForge 20170910 at Sun Mar 16 18:47:17 2003
 By Jimmy Wärting
Copyright (c) 2003 Nick Curtis. All Rights Reserved.
</metadata>
<defs>
<font id="SeasideResortNF" horiz-adv-x="36" >
  <font-face 
    font-family="SeasideResortNF"
    font-weight="400"
    font-stretch="normal"
    units-per-em="1000"
    panose-1="0 0 4 0 0 0 0 0 0 0"
    ascent="800"
    descent="-200"
    x-height="862"
    cap-height="863"
    bbox="-134 -260 1357 1131"
    underline-thickness="20"
    underline-position="-143"
    unicode-range="U+0020-2122"
  />
<missing-glyph horiz-adv-x="500" 
d="M63 0v890h375v-890h-375zM125 63h250v765h-250v-765z" />
    <glyph glyph-name=".notdef" horiz-adv-x="500" 
d="M63 0v890h375v-890h-375zM125 63h250v765h-250v-765z" />
    <glyph glyph-name=".null" horiz-adv-x="0" 
 />
    <glyph glyph-name="nonmarkingreturn" horiz-adv-x="225" 
 />
    <glyph glyph-name="space" unicode=" " horiz-adv-x="225" 
 />
    <glyph glyph-name="exclam" unicode="!" horiz-adv-x="246" 
d="M210 141h-174v15h144v697h30v-712zM112 186h-76v675h76v-675zM210 0h-30v110h30v-110zM112 0h-76v110h76v-110z" />
    <glyph glyph-name="quotedbl" unicode="&#x22;" horiz-adv-x="357" 
d="M321 881l-128 -204h-47l76 204h99zM211 881l-128 -204h-47l76 204h99z" />
    <glyph glyph-name="numbersign" unicode="#" 
 />
    <glyph glyph-name="dollar" unicode="$" horiz-adv-x="473" 
d="M437 711l-112 -102l-1 27l82 75q-34 39 -82 59v91h30v-91q46 -19 83 -59zM378 290q0 -95 -61 -167v-125h-30v125q61 72 61 167q0 97 -61 173v126h30v-126q61 -76 61 -173zM323 704l-56 -51q-16 19 -45 27v-243q60 -71 60 -147q0 -86 -60 -140v-152h-76v110q-35 -8 -58 -8
v75q31 0 58 15v217q-69 77 -74 83q-36 51 -36 103t30.5 95.5t79.5 59.5v113h76v-104q59 -8 101 -53zM146 521v142q-35 -27 -35 -70q0 -34 35 -72z" />
    <glyph glyph-name="percent" unicode="%" 
 />
    <glyph glyph-name="ampersand" unicode="&#x26;" horiz-adv-x="887" 
d="M442 722h-30v141h30v-141zM621 330h-31l-255 372q0 17 14 17h31q-14 -2 -14 -22zM851 0h-31l-113 161q27 71 27 143h31q0 -73 -28 -143zM736 0h-92l-63 89q-92 -100 -230 -100q-130 0 -222.5 92.5t-92.5 222.5q0 98 52 178t142 115q-38 53 -38 105q0 66 46.5 113.5
t112.5 47.5v-77q-34 0 -59 -25t-25 -59q0 -26 12 -43l299 -431q12 35 12 76h75q0 -81 -37 -149zM537 153l-262 380q-76 -23 -120 -86t-44 -143q0 -99 70.5 -169.5t169.5 -70.5q113 0 186 89zM366 133h-15q-71 0 -121 50.5t-50 121.5q0 93 71 143l11 -16q-52 -45 -52 -127
q0 -66 45 -116.5t111 -55.5z" />
    <glyph glyph-name="quotesingle" unicode="'" horiz-adv-x="247" 
d="M211 881l-128 -204h-47l76 204h99z" />
    <glyph glyph-name="parenleft" unicode="(" horiz-adv-x="439" 
d="M403 -14l-70 -96h-30l70 96q-91 66 -142 165t-51 210q0 112 51 211.5t142 164.5l-71 95h30l71 -95q-91 -65 -142 -164.5t-51 -211.5q0 -111 51 -210t142 -165zM303 -47l-45 -61q-105 88 -163.5 210.5t-58.5 258.5t58.5 259t163.5 210l45 -61q-91 -76 -140.5 -182.5
t-49.5 -225.5q0 -118 50 -225t140 -183z" />
    <glyph glyph-name="parenright" unicode=")" horiz-adv-x="437" 
d="M401 362q0 -267 -181 -472h-31q67 75 112 169q70 148 70 303q0 268 -181 473h31q71 -83 112 -169q68 -144 68 -304zM302 362q0 -136 -58 -259t-163 -209l-45 61q91 76 141 182.5t50 224.5t-50 225t-140 182l45 61q104 -86 162 -209t58 -259z" />
    <glyph glyph-name="asterisk" unicode="*" horiz-adv-x="368" 
d="M332 687l-97 -6l15 -97l-66 71l-65 -71l15 97l-98 6l85 48l-56 81l91 -36l28 92l28 -92l91 36l-56 -81z" />
    <glyph glyph-name="plus" unicode="+" 
 />
    <glyph glyph-name="comma" unicode="," horiz-adv-x="292" 
d="M256 -11l-93 -85l-14 15l77 70v121h30v-121zM158 20l-71 -65l-51 56l46 42v57h76v-90z" />
    <glyph glyph-name="hyphen" unicode="-" horiz-adv-x="353" 
d="M317 308h-224v16h201v196h23v-212zM232 391h-196v76h196v-76z" />
    <glyph glyph-name="hyphen" unicode="&#x2010;" horiz-adv-x="353" 
d="M317 308h-224v16h201v196h23v-212zM232 391h-196v76h196v-76z" />
    <glyph glyph-name="period" unicode="." horiz-adv-x="246" 
d="M210 0h-30v110h30v-110zM112 0h-76v110h76v-110z" />
    <glyph glyph-name="slash" unicode="/" horiz-adv-x="420" 
d="M384 840l-275 -897l-73 -1l275 897z" />
    <glyph glyph-name="zero" unicode="0" horiz-adv-x="1055" 
d="M1019 430q0 -134 -65 -250q-64 -112 -174 -181h-30q109 69 173 181q65 116 65 250t-65 250q-63 112 -172 182h30q109 -70 173 -182q65 -116 65 -250zM921 430q0 -182 -130.5 -312t-313.5 -130t-312 129.5t-129 312.5t129 313.5t312 130.5t313.5 -130.5t130.5 -313.5z
M844 430q0 152 -107.5 259.5t-259.5 107.5q-151 0 -258.5 -107.5t-107.5 -259.5q0 -151 107.5 -258.5t258.5 -107.5q152 0 259.5 107.5t107.5 258.5zM515 715q-118 -7 -200.5 -94t-82.5 -206q0 -150 122 -241q66 -38 139 -42h-16q-122 0 -209.5 87.5t-87.5 210.5
q0 124 87 212t210 88q6 0 38 -15z" />
    <glyph glyph-name="one" unicode="1" horiz-adv-x="277" 
d="M241 863l-30 -863h-31v863h61zM111 0h-75v863h75v-863z" />
    <glyph glyph-name="two" unicode="2" horiz-adv-x="684" 
d="M648 546q0 -155 -111 -269l-130 -133h-30l129 133q113 117 113 269q0 94 -45 178t-123 139h30q78 -54 122.5 -138t44.5 -179zM405 541q-4 68 -54 115.5t-118 47.5q-52 0 -95 -29l-12 19q66 32 107 32q71 0 121.5 -51t50.5 -122v-12zM549 546q0 -131 -91 -223l-243 -247
h303v-76h-482l368 377q70 72 70 169q0 99 -71 169.5t-170 70.5q-73 0 -132 -39l-43 63q83 53 175 53q130 0 223 -93t93 -224zM610 0h-31v144h31v-144z" />
    <glyph glyph-name="three" unicode="3" horiz-adv-x="659" 
d="M623 302q0 -91 -40 -170.5t-110 -133.5h-30q70 54 110 133.5t40 170.5q0 105 -54 195.5t-146 140.5l179 223h31l-180 -223q92 -50 146 -140.5t54 -195.5zM524 302q0 -130 -92 -222.5t-222 -92.5q-96 0 -174 51l43 63q59 -39 131 -39q98 0 168.5 70.5t70.5 169.5
t-70.5 169t-168.5 70h-79l196 243h-239v77h396l-203 -253q107 -25 175 -111t68 -195z" />
    <glyph glyph-name="four" unicode="4" horiz-adv-x="792" 
d="M686 397h-30v464h30v-464zM756 185h-30v212h30v-212zM665 253h-78v-253h-75v253h-476l477 608h74v-532h78v-76zM686 0h-30v185h30v-185zM512 329v407l-320 -407h320zM443 476l-81 -79h-31l112 142v-63z" />
    <glyph glyph-name="five" unicode="5" horiz-adv-x="658" 
d="M622 302q0 -91 -40 -170.5t-109 -133.5h-30q69 54 109 134t40 170q0 127 -77 229.5t-200 138.5l-1 54h214v137h30v-159h-211l-1 -32q122 -36 199 -138.5t77 -229.5zM524 302q0 -130 -92.5 -222.5t-222.5 -92.5q-96 0 -173 51l42 63q61 -39 131 -39q99 0 169 70.5
t70 169.5t-70.5 169t-168.5 70h-40v320h298v-77h-219v-170q117 -14 196.5 -103.5t79.5 -208.5z" />
    <glyph glyph-name="six" unicode="6" horiz-adv-x="801" 
d="M765 302q0 -90 -40 -170t-109 -134h-31q70 54 110 133.5t40 170.5q0 135 -85.5 240t-216.5 134l149 185h31l-150 -185q132 -29 217 -134t85 -240zM667 302q0 -130 -92.5 -222.5t-222.5 -92.5t-223 92.5t-93 222.5q0 108 72 198l289 361h97l-200 -250q38 6 58 6
q130 0 222.5 -92.5t92.5 -222.5zM592 302q0 99 -70.5 169t-169.5 70q-100 0 -169.5 -70.5t-69.5 -168.5q0 -99 70.5 -169.5t168.5 -70.5q99 0 169.5 70.5t70.5 169.5zM368 131h-16q-71 0 -121.5 50t-50.5 121q0 70 51 120.5t121 50.5h16q-67 -7 -112 -56t-45 -115
q0 -67 45.5 -116.5t111.5 -54.5z" />
    <glyph glyph-name="seven" unicode="7" horiz-adv-x="574" 
d="M538 861l-285 -861h-31l286 861h30zM436 861l-284 -861h-80l259 784h-295v77h400z" />
    <glyph glyph-name="eight" unicode="8" horiz-adv-x="801" 
d="M765 302q0 -91 -40 -170.5t-110 -133.5h-31q70 54 110.5 133.5t40.5 170.5q0 95 -45.5 179.5t-124.5 138.5q14 44 14 80q0 93 -65 161h30q65 -68 65 -161q0 -41 -14 -80q79 -54 124.5 -138t45.5 -180zM667 302q0 -130 -92.5 -222.5t-223.5 -92.5q-130 0 -222.5 92.5
t-92.5 222.5q0 96 54.5 176t143.5 116q-42 44 -42 106q0 67 47 114t112 47q66 0 113 -47t47 -114q0 -60 -41 -106q89 -36 143 -116t54 -176zM435 700q0 35 -24.5 59.5t-59.5 24.5q-34 0 -59 -24.5t-25 -59.5q0 -37 26 -60t59 -23q34 0 58.5 24.5t24.5 58.5zM591 302
q0 99 -70.5 169t-169.5 70q-97 0 -167.5 -70.5t-70.5 -168.5q0 -99 69.5 -169.5t168.5 -70.5t169.5 70.5t70.5 169.5zM366 700q0 -15 -15 -15t-15 15q0 17 15 17t15 -17zM366 131h-15q-70 0 -120.5 50t-50.5 121q0 70 50.5 120.5t120.5 50.5h15q-65 -7 -110 -56t-45 -115
q0 -67 45 -116.5t110 -54.5z" />
    <glyph glyph-name="nine" unicode="9" horiz-adv-x="800" 
d="M764 554q0 -141 -86 -249l-245 -307h-31l245 307q86 108 86 249q0 91 -46 174q-44 79 -120 133h30q77 -54 121 -133q46 -83 46 -174zM666 546q0 -113 -70 -200l-281 -348h-97l192 237q-27 -4 -59 -4q-130 0 -222.5 92.5t-92.5 222.5t92.5 222.5t222.5 92.5t222.5 -92.5
t92.5 -222.5zM591 546q0 99 -70.5 169t-169.5 70t-168.5 -70t-69.5 -169t69.5 -169.5t168.5 -70.5t169.5 70.5t70.5 169.5zM366 375q-8 -1 -17 -1q-69 0 -119 51t-50 121q0 73 50.5 122t124.5 49h10q-66 -4 -110 -54t-44 -117t44.5 -116.5t110.5 -54.5z" />
    <glyph glyph-name="colon" unicode=":" horiz-adv-x="249" 
d="M211 263h-175v22h145v166h30v-188zM113 339h-76v112h76v-112zM213 0h-30v110h30v-110zM115 0h-76v110h76v-110z" />
    <glyph glyph-name="semicolon" unicode=";" horiz-adv-x="292" 
d="M256 263h-175v22h145v166h30v-188zM158 339h-76v112h76v-112zM256 -11l-93 -85l-14 15l77 70v121h30v-121zM158 20l-71 -65l-51 56l46 42v57h76v-90z" />
    <glyph glyph-name="less" unicode="&#x3c;" 
 />
    <glyph glyph-name="equal" unicode="=" 
 />
    <glyph glyph-name="greater" unicode="&#x3e;" 
 />
    <glyph glyph-name="question" unicode="?" horiz-adv-x="535" 
d="M279 682q-18 35 -58 35q-29 0 -49 -22l-19 19q37 33 61 33q27 0 46 -19t19 -46zM499 650q0 -105 -73 -186l-124 -137q-35 -39 -35 -86v-108h-175v23h145v85q0 49 34 86l125 137q73 80 73 186q0 126 -96 211h30q96 -85 96 -211zM400 650q0 -81 -54 -140l-125 -137
q-52 -57 -52 -132v-55h-76v55q0 103 72 183l124 137q36 40 36 89q0 56 -39 95t-95 39q-59 0 -99 -43l-56 51q61 69 155 69q86 0 147.5 -62t61.5 -149zM267 -2h-30v112h30v-112zM169 -2h-76v112h76v-112z" />
    <glyph glyph-name="at" unicode="@" horiz-adv-x="1048" 
d="M1012 417q0 -122 -58 -203q-65 -92 -183 -92q-8 0 -16 1q6 0 18 1q110 15 166 101q50 75 50 192q0 137 -69 256t-188 188h23q119 -69 188 -188t69 -256zM755 337l-8 -3h-4q-22 -2 -27 24l-26 142q-26 139 -131 205q46 -14 50 -17q36 -28 67 -85q28 -53 37 -102l25 -143
q3 -15 17 -21zM921 417q0 -95 -39 -155q-45 -71 -136 -71q-49 0 -108 36q-60 -69 -160 -69q-77 0 -135 46q-63 50 -63 125q0 76 62 126q58 46 136 46q38 0 69 -11q-12 47 -42 76q-33 32 -79 32q-62 0 -105 -57l-60 47q67 87 165 87q62 0 115 -40q66 -50 83 -146l25 -143
q3 -19 12 -33q29 -47 83 -47q101 0 101 151q0 152 -107.5 259.5t-259.5 107.5q-151 0 -259 -108t-108 -259t108 -259t259 -108q92 0 169 42l42 -64q-97 -53 -211 -53q-183 0 -312.5 129.5t-129.5 312.5t129.5 313.5t312.5 130.5t313 -130.5t130 -313.5zM778 -2h-23l-92 138
q12 -4 29 -7zM258 590q-56 -75 -56 -178q0 -24 6 -53q2 -6 4 -17v-13q0 -29 9 -63q-41 68 -41 151q0 104 64 184zM589 288q-10 21 -17 55q-4 28 -9 56q-37 27 -85 27q-45 0 -81 -26q-41 -28 -41 -71t41 -71q36 -25 81 -25q77 0 111 55zM490 302h-12q-14 0 -32 7
q-22 9 -22 20q0 12 22 21q17 7 32 7q8 0 12 -1q-12 -1 -28 -9t-16 -18q0 -19 44 -27z" />
    <glyph glyph-name="A" unicode="A" horiz-adv-x="840" 
d="M804 -1h-30l-324 862h31zM701 0h-80l-32 88h-440l-32 -88h-81l333 905zM227 19l-8 -20h-30l8 20h30zM560 163l-191 521l-192 -521h383zM405 390l-101 -158h-30l95 256z" />
    <glyph glyph-name="B" unicode="B" horiz-adv-x="636" 
d="M600 156q0 -92 -65 -157h-30q65 65 65 157q0 91 -65 158q44 88 44 189q0 111 -54 208q-52 94 -142 151h31q90 -57 142 -151q54 -97 54 -208q0 -99 -45 -189q65 -67 65 -158zM501 156q0 -64 -45.5 -110t-109.5 -46h-310v862h87q148 0 253.5 -105.5t105.5 -253.5
q0 -114 -67 -207q86 -44 86 -140zM405 503q0 117 -82.5 200.5t-199.5 83.5h-11l-2 -566h13q117 0 199.5 83t82.5 199zM426 156q0 29 -18.5 51.5t-47.5 27.5q-103 -90 -237 -90q-8 0 -13 1v-71h236q32 0 56 24t24 57zM236 694l-27 -387q-1 0 -30 -11l2 414q23 -6 55 -16z" />
    <glyph glyph-name="C" unicode="C" horiz-adv-x="851" 
d="M795 772l-61 -91q-12 8 -22 13l62 93zM815 60l-22 -14l-81 122q16 8 22 13zM722 61q-109 -73 -243 -73q-183 0 -313 130t-130 312q0 183 130 313.5t313 130.5q131 0 243 -73l-41 -64q-90 60 -202 60q-152 0 -259.5 -107.5t-107.5 -259.5q0 -151 108 -258.5t259 -107.5
q110 0 202 60zM517 715q-119 -7 -201.5 -93.5t-82.5 -206.5q0 -150 123 -241q64 -38 139 -42h-16q-81 0 -153 42q-67 39 -106.5 107.5t-39.5 148.5q0 124 88 212t211 88q6 0 38 -15z" />
    <glyph glyph-name="D" unicode="D" horiz-adv-x="588" 
d="M552 431q0 -132 -65.5 -248.5t-176.5 -183.5h-30q111 67 176.5 183.5t65.5 248.5q0 131 -64.5 247t-173.5 184h31q108 -68 172.5 -184t64.5 -247zM454 431q0 -162 -107 -288q-110 -129 -271 -141l-40 -3v866l40 -3q161 -12 271 -141q107 -126 107 -290zM378 431
q0 121 -75 222t-192 127v-696q117 26 192 126t75 221zM228 645l-18 -437q-5 -4 -15 -11.5t-15 -11.5v494q19 -12 48 -34z" />
    <glyph glyph-name="E" unicode="E" horiz-adv-x="540" 
d="M475 700h-186l-109 -301v321h265v142h30v-162zM412 0h-376v862h346v-75h-269v-457h271v-75h-271v-180h299v-75zM475 186h-264v-42h-31v62h265v193h30v-213zM504 -1h-31v145h31v-145z" />
    <glyph glyph-name="F" unicode="F" horiz-adv-x="511" 
d="M472 700h-187l-109 -301v321h265v142h31v-162zM383 255h-272v-255h-75v862h344v-75h-269v-457h272v-75zM475 186h-265v-186h-30v206h264v193h31v-213z" />
    <glyph glyph-name="G" unicode="G" horiz-adv-x="874" 
d="M801 781l-67 -100q-3 2 -10 6.5t-11 6.5l66 101zM838 36q-19 -13 -59 -37h-31q25 14 59 37v344h31v-344zM739 72q-131 -84 -261 -84q-182 0 -312 130t-130 312q0 183 130 313.5t312 130.5q132 0 244 -73l-42 -64q-90 60 -202 60q-151 0 -259 -107.5t-108 -259.5
q0 -151 108 -258.5t259 -107.5q99 0 186 49v123h-192v76h267v-240zM516 715q-118 -7 -200.5 -94t-82.5 -206q0 -150 122 -241q66 -38 140 -42h-17q-83 0 -153 42q-66 40 -105.5 108t-39.5 148q0 124 87.5 212t210.5 88q6 0 38 -15z" />
    <glyph glyph-name="H" unicode="H" horiz-adv-x="892" 
d="M856 862l-30 -862h-31v862h61zM241 862l-23 -482h-38v482h61zM727 0h-76v236h-539v-236h-76v862h76v-550h539v550h76v-862zM596 148h-379l-7 -148h-30v168h416v-20z" />
    <glyph glyph-name="I" unicode="I" horiz-adv-x="277" 
d="M241 863l-30 -863h-31v863h61zM111 0h-75v863h75v-863z" />
    <glyph glyph-name="J" unicode="J" horiz-adv-x="400" 
d="M364 862l-30 -664q-6 -124 -91 -199h-30q90 80 90 199v664h61zM235 198q0 -82 -58.5 -140t-140.5 -58v75q51 0 87 36.5t36 86.5v664h76v-664z" />
    <glyph glyph-name="K" unicode="K" horiz-adv-x="776" 
d="M740 862l-364 -488l308 -375h-30l-308 375l363 488h31zM244 862l-31 -313l-31 -40l1 353h61zM624 862l-365 -491l307 -371h-97l-256 309l-101 -134v-175h-76l1 862h78l-1 -559l417 559h93zM231 181l-19 -28v-153h-32l1 153l35 46z" />
    <glyph glyph-name="L" unicode="L" horiz-adv-x="525" 
d="M240 862l-30 -718h-31v718h61zM397 0h-361v862h75v-787h286v-75zM489 -1h-31v145h31v-145z" />
    <glyph glyph-name="M" unicode="M" horiz-adv-x="957" 
d="M921 0h-28v804h28v-804zM830 0h-71v611l-326 -623l-326 623v-611h-71v897l397 -757l397 757v-897zM447 303l-14 -27l-286 528h57zM695 298l-155 -299h-29l184 353v-54zM230 241l-31 -241h-28v352z" />
    <glyph glyph-name="N" unicode="N" horiz-adv-x="842" 
d="M806 -1h-30v842h30v-842zM570 343l-410 498h29l381 -462v-36zM710 -52l-600 738v-686h-74v893l600 -738v686h74v-893zM246 414l-40 -414h-29v499z" />
    <glyph glyph-name="O" unicode="O" horiz-adv-x="1055" 
d="M1019 430q0 -134 -65 -250q-64 -112 -174 -181h-30q109 69 173 181q65 116 65 250t-65 250q-63 112 -172 182h30q109 -70 173 -182q65 -116 65 -250zM921 430q0 -182 -130.5 -312t-313.5 -130t-312 129.5t-129 312.5t129 313.5t312 130.5t313.5 -130.5t130.5 -313.5z
M844 430q0 152 -107.5 259.5t-259.5 107.5q-151 0 -258.5 -107.5t-107.5 -259.5q0 -151 107.5 -258.5t258.5 -107.5q152 0 259.5 107.5t107.5 258.5zM515 715q-118 -7 -200.5 -94t-82.5 -206q0 -150 122 -241q66 -38 139 -42h-16q-122 0 -209.5 87.5t-87.5 210.5
q0 124 87 212t210 88q6 0 38 -15z" />
    <glyph glyph-name="P" unicode="P" horiz-adv-x="617" 
d="M581 503q0 -161 -106.5 -281.5t-263.5 -140.5v-81h-31v81q157 20 263.5 140.5t106.5 281.5q0 112 -53 207t-143 152h31q90 -57 143 -152t53 -207zM483 503q0 -148 -105.5 -253t-253.5 -105q-9 0 -13 1v-146h-75v862h88q148 0 253.5 -105.5t105.5 -253.5zM408 503
q0 117 -83.5 200.5t-200.5 83.5h-11l-1 -566h12q117 0 200.5 83t83.5 199zM248 682l-36 -375q-5 -2 -15.5 -5.5t-15.5 -5.5l1 414q22 -6 66 -28z" />
    <glyph glyph-name="Q" unicode="Q" horiz-adv-x="1056" 
d="M1020 430q0 -218 -159 -369l28 -46l-27 -16h-31l28 16l-29 46q159 151 159 369q0 134 -65 250q-63 113 -172 182h30q109 -70 173 -182q65 -116 65 -250zM922 430q0 -107 -48.5 -200t-131.5 -155l59 -96l-64 -39l-59 96q-93 -48 -200 -48q-182 0 -312 130t-130 312
q0 183 130 313.5t312 130.5q183 0 313.5 -130.5t130.5 -313.5zM846 430q0 152 -108 259.5t-260 107.5q-151 0 -259 -107.5t-108 -259.5q0 -151 108 -258.5t259 -107.5q85 0 159 36l-54 88l64 40l55 -89q67 52 105.5 128.5t38.5 162.5zM517 715q-118 -7 -201 -94t-83 -206
q0 -150 122 -241q66 -38 139 -42h-16q-83 0 -153 42q-66 40 -105.5 108t-39.5 148q0 124 87.5 212t210.5 88q6 0 39 -15z" />
    <glyph glyph-name="R" unicode="R" horiz-adv-x="618" 
d="M582 503q0 -94 -39 -177.5t-108 -142.5l105 -168l-102 -62h-30l101 62l-105 168q69 59 108.5 142.5t39.5 177.5q0 111 -54 208q-53 94 -143 151h31q90 -57 142 -151q54 -97 54 -208zM483 503q0 -93 -45.5 -173.5t-122.5 -129.5l107 -175l-64 -39l-111 181
q-61 -22 -122 -22q-9 0 -14 1v-146h-75v862h89q148 0 253 -105.5t105 -253.5zM219 82h-4q-3 -1 -4 -1v-81h-31v81l36 6zM408 503q0 117 -83.5 200.5t-199.5 83.5h-14v-566h14q116 0 199.5 83t83.5 199zM247 682l-36 -375q-5 -2 -15.5 -5.5t-15.5 -5.5l1 414q22 -6 66 -28z
" />
    <glyph glyph-name="S" unicode="S" horiz-adv-x="535" 
d="M434 718q-16 0 -31 -3v147h31v-144zM499 209q0 -127 -96 -210h-30q96 83 96 210q0 109 -72 188l-124 136q-35 39 -35 86q0 44 29.5 71.5t73.5 27.5h33v-4q-81 -20 -81 -110q0 -36 30 -71l115 -136q61 -72 61 -188zM401 209q0 -86 -61.5 -147.5t-147.5 -61.5
q-93 0 -156 69l57 51q40 -45 99 -45q55 0 94 39.5t39 94.5q0 52 -35 91l-124 137q-72 80 -72 182q0 103 72.5 173t175.5 70v-75q-72 0 -122.5 -48t-50.5 -120q0 -75 52 -132l125 -136q55 -60 55 -142z" />
    <glyph glyph-name="T" unicode="T" horiz-adv-x="736" 
d="M700 718h-31v144h31v-144zM618 718l-159 -79v-639h-31v718h190zM214 687h-178v31h178v-31zM608 787h-248v-787h-75v787h-249v75h572v-75z" />
    <glyph glyph-name="U" unicode="U" horiz-adv-x="862" 
d="M826 345q0 -105 -52 -199q-51 -90 -137 -147h-31q87 56 138.5 148t51.5 198v517h30v-517zM727 345q0 -142 -101.5 -243.5t-243.5 -101.5q-143 0 -244.5 101.5t-101.5 243.5v517h76v-517q0 -111 79 -190.5t191 -79.5q110 0 190 79.5t80 190.5v517h75v-517zM397 144h-15
q-83 0 -143 59t-60 142v517h84l-53 -517q0 -78 54.5 -136t132.5 -65z" />
    <glyph glyph-name="V" unicode="V" horiz-adv-x="853" 
d="M817 862l-322 -862h-31l323 862h30zM390 398l-15 -42l-186 506h83zM715 862l-340 -924l-339 924h81l258 -703l259 703h81z" />
    <glyph glyph-name="W" unicode="W" horiz-adv-x="1393" 
d="M1357 863l-317 -863h-30l317 863h30zM933 408l-16 -44l-173 499h84zM1254 863l-340 -916l-269 763l-270 -763l-339 916h81l257 -699l271 773l270 -773l258 699h81zM387 408l-14 -44l-184 499h83zM660 461l-163 -461h-31l179 505z" />
    <glyph glyph-name="X" unicode="X" horiz-adv-x="919" 
d="M883 0h-31l-322 483l252 379h31l-253 -379zM419 696l-16 -23l-126 189h84zM771 0h-92l-276 414l-276 -414h-91l322 483l-253 379h90l208 -312l207 312h92l-254 -379zM431 253l-192 -253h-31l195 292z" />
    <glyph glyph-name="Y" unicode="Y" horiz-adv-x="990" 
d="M954 862l-475 -863h-30l475 863h30zM518 565l-10 -21l-281 318h83zM845 862l-472 -862h-87l195 355l-445 507h101l383 -436l239 436h86z" />
    <glyph glyph-name="Z" unicode="Z" horiz-adv-x="850" 
d="M814 862l-480 -718h-30l479 718h31zM425 720l-13 -20h-323v20h336zM778 -1h-31v145h31v-145zM701 862l-524 -787h509v-75h-650l524 787h-475v75h616z" />
    <glyph glyph-name="bracketleft" unicode="[" 
 />
    <glyph glyph-name="backslash" unicode="\" 
 />
    <glyph glyph-name="bracketright" unicode="]" 
 />
    <glyph glyph-name="asciicircum" unicode="^" 
 />
    <glyph glyph-name="underscore" unicode="_" horiz-adv-x="500" 
d="M499 -80h-499v75h499v-75z" />
    <glyph glyph-name="grave" unicode="`" horiz-adv-x="310" 
d="M274 887h-55l-183 204h114z" />
    <glyph glyph-name="a" unicode="a" horiz-adv-x="840" 
d="M804 -1h-30l-324 862h31zM701 0h-80l-32 88h-440l-32 -88h-81l333 905zM227 19l-8 -20h-30l8 20h30zM560 163l-191 521l-192 -521h383zM405 390l-101 -158h-30l95 256z" />
    <glyph glyph-name="b" unicode="b" horiz-adv-x="636" 
d="M600 156q0 -92 -65 -157h-30q65 65 65 157q0 91 -65 158q44 88 44 189q0 111 -54 208q-52 94 -142 151h31q90 -57 142 -151q54 -97 54 -208q0 -99 -45 -189q65 -67 65 -158zM501 156q0 -64 -45.5 -110t-109.5 -46h-310v862h87q148 0 253.5 -105.5t105.5 -253.5
q0 -114 -67 -207q86 -44 86 -140zM405 503q0 117 -82.5 200.5t-199.5 83.5h-11l-2 -566h13q117 0 199.5 83t82.5 199zM426 156q0 29 -18.5 51.5t-47.5 27.5q-103 -90 -237 -90q-8 0 -13 1v-71h236q32 0 56 24t24 57zM236 694l-27 -387q-1 0 -30 -11l2 414q23 -6 55 -16z" />
    <glyph glyph-name="c" unicode="c" horiz-adv-x="851" 
d="M795 772l-61 -91q-12 8 -22 13l62 93zM815 60l-22 -14l-81 122q16 8 22 13zM722 61q-109 -73 -243 -73q-183 0 -313 130t-130 312q0 183 130 313.5t313 130.5q131 0 243 -73l-41 -64q-90 60 -202 60q-152 0 -259.5 -107.5t-107.5 -259.5q0 -151 108 -258.5t259 -107.5
q110 0 202 60zM517 715q-119 -7 -201.5 -93.5t-82.5 -206.5q0 -150 123 -241q64 -38 139 -42h-16q-81 0 -153 42q-67 39 -106.5 107.5t-39.5 148.5q0 124 88 212t211 88q6 0 38 -15z" />
    <glyph glyph-name="d" unicode="d" horiz-adv-x="588" 
d="M552 431q0 -132 -65.5 -248.5t-176.5 -183.5h-30q111 67 176.5 183.5t65.5 248.5q0 131 -64.5 247t-173.5 184h31q108 -68 172.5 -184t64.5 -247zM454 431q0 -162 -107 -288q-110 -129 -271 -141l-40 -3v866l40 -3q161 -12 271 -141q107 -126 107 -290zM378 431
q0 121 -75 222t-192 127v-696q117 26 192 126t75 221zM228 645l-18 -437q-5 -4 -15 -11.5t-15 -11.5v494q19 -12 48 -34z" />
    <glyph glyph-name="e" unicode="e" horiz-adv-x="540" 
d="M475 700h-186l-109 -301v321h265v142h30v-162zM412 0h-376v862h346v-75h-269v-457h271v-75h-271v-180h299v-75zM475 186h-264v-42h-31v62h265v193h30v-213zM504 -1h-31v145h31v-145z" />
    <glyph glyph-name="f" unicode="f" horiz-adv-x="511" 
d="M472 700h-187l-109 -301v321h265v142h31v-162zM383 255h-272v-255h-75v862h344v-75h-269v-457h272v-75zM475 186h-265v-186h-30v206h264v193h31v-213z" />
    <glyph glyph-name="g" unicode="g" horiz-adv-x="874" 
d="M801 781l-67 -100q-3 2 -10 6.5t-11 6.5l66 101zM838 36q-19 -13 -59 -37h-31q25 14 59 37v344h31v-344zM739 72q-131 -84 -261 -84q-182 0 -312 130t-130 312q0 183 130 313.5t312 130.5q132 0 244 -73l-42 -64q-90 60 -202 60q-151 0 -259 -107.5t-108 -259.5
q0 -151 108 -258.5t259 -107.5q99 0 186 49v123h-192v76h267v-240zM516 715q-118 -7 -200.5 -94t-82.5 -206q0 -150 122 -241q66 -38 140 -42h-17q-83 0 -153 42q-66 40 -105.5 108t-39.5 148q0 124 87.5 212t210.5 88q6 0 38 -15z" />
    <glyph glyph-name="h" unicode="h" horiz-adv-x="892" 
d="M856 862l-30 -862h-31v862h61zM241 862l-23 -482h-38v482h61zM727 0h-76v236h-539v-236h-76v862h76v-550h539v550h76v-862zM596 148h-379l-7 -148h-30v168h416v-20z" />
    <glyph glyph-name="i" unicode="i" horiz-adv-x="277" 
d="M241 863l-30 -863h-31v863h61zM111 0h-75v863h75v-863z" />
    <glyph glyph-name="j" unicode="j" horiz-adv-x="400" 
d="M364 862l-30 -664q-6 -124 -91 -199h-30q90 80 90 199v664h61zM235 198q0 -82 -58.5 -140t-140.5 -58v75q51 0 87 36.5t36 86.5v664h76v-664z" />
    <glyph glyph-name="k" unicode="k" horiz-adv-x="776" 
d="M740 862l-364 -488l308 -375h-30l-308 375l363 488h31zM244 862l-31 -313l-31 -40l1 353h61zM624 862l-365 -491l307 -371h-97l-256 309l-101 -134v-175h-76l1 862h78l-1 -559l417 559h93zM231 181l-19 -28v-153h-32l1 153l35 46z" />
    <glyph glyph-name="l" unicode="l" horiz-adv-x="525" 
d="M240 862l-30 -718h-31v718h61zM397 0h-361v862h75v-787h286v-75zM489 -1h-31v145h31v-145z" />
    <glyph glyph-name="m" unicode="m" horiz-adv-x="957" 
d="M921 0h-28v804h28v-804zM830 0h-71v611l-326 -623l-326 623v-611h-71v897l397 -757l397 757v-897zM447 303l-14 -27l-286 528h57zM695 298l-155 -299h-29l184 353v-54zM230 241l-31 -241h-28v352z" />
    <glyph glyph-name="n" unicode="n" horiz-adv-x="842" 
d="M806 -1h-30v842h30v-842zM570 343l-410 498h29l381 -462v-36zM710 -52l-600 738v-686h-74v893l600 -738v686h74v-893zM246 414l-40 -414h-29v499z" />
    <glyph glyph-name="o" unicode="o" horiz-adv-x="1055" 
d="M1019 430q0 -134 -65 -250q-64 -112 -174 -181h-30q109 69 173 181q65 116 65 250t-65 250q-63 112 -172 182h30q109 -70 173 -182q65 -116 65 -250zM921 430q0 -182 -130.5 -312t-313.5 -130t-312 129.5t-129 312.5t129 313.5t312 130.5t313.5 -130.5t130.5 -313.5z
M844 430q0 152 -107.5 259.5t-259.5 107.5q-151 0 -258.5 -107.5t-107.5 -259.5q0 -151 107.5 -258.5t258.5 -107.5q152 0 259.5 107.5t107.5 258.5zM515 715q-118 -7 -200.5 -94t-82.5 -206q0 -150 122 -241q66 -38 139 -42h-16q-122 0 -209.5 87.5t-87.5 210.5
q0 124 87 212t210 88q6 0 38 -15z" />
    <glyph glyph-name="p" unicode="p" horiz-adv-x="617" 
d="M581 503q0 -161 -106.5 -281.5t-263.5 -140.5v-81h-31v81q157 20 263.5 140.5t106.5 281.5q0 112 -53 207t-143 152h31q90 -57 143 -152t53 -207zM483 503q0 -148 -105.5 -253t-253.5 -105q-9 0 -13 1v-146h-75v862h88q148 0 253.5 -105.5t105.5 -253.5zM408 503
q0 117 -83.5 200.5t-200.5 83.5h-11l-1 -566h12q117 0 200.5 83t83.5 199zM248 682l-36 -375q-5 -2 -15.5 -5.5t-15.5 -5.5l1 414q22 -6 66 -28z" />
    <glyph glyph-name="q" unicode="q" horiz-adv-x="1056" 
d="M1020 430q0 -218 -159 -369l28 -46l-27 -16h-31l28 16l-29 46q159 151 159 369q0 134 -65 250q-63 113 -172 182h30q109 -70 173 -182q65 -116 65 -250zM922 430q0 -107 -48.5 -200t-131.5 -155l59 -96l-64 -39l-59 96q-93 -48 -200 -48q-182 0 -312 130t-130 312
q0 183 130 313.5t312 130.5q183 0 313.5 -130.5t130.5 -313.5zM846 430q0 152 -108 259.5t-260 107.5q-151 0 -259 -107.5t-108 -259.5q0 -151 108 -258.5t259 -107.5q85 0 159 36l-54 88l64 40l55 -89q67 52 105.5 128.5t38.5 162.5zM517 715q-118 -7 -201 -94t-83 -206
q0 -150 122 -241q66 -38 139 -42h-16q-83 0 -153 42q-66 40 -105.5 108t-39.5 148q0 124 87.5 212t210.5 88q6 0 39 -15z" />
    <glyph glyph-name="r" unicode="r" horiz-adv-x="618" 
d="M582 503q0 -94 -39 -177.5t-108 -142.5l105 -168l-102 -62h-30l101 62l-105 168q69 59 108.5 142.5t39.5 177.5q0 111 -54 208q-53 94 -143 151h31q90 -57 142 -151q54 -97 54 -208zM483 503q0 -93 -45.5 -173.5t-122.5 -129.5l107 -175l-64 -39l-111 181
q-61 -22 -122 -22q-9 0 -14 1v-146h-75v862h89q148 0 253 -105.5t105 -253.5zM219 82h-4q-3 -1 -4 -1v-81h-31v81l36 6zM408 503q0 117 -83.5 200.5t-199.5 83.5h-14v-566h14q116 0 199.5 83t83.5 199zM247 682l-36 -375q-5 -2 -15.5 -5.5t-15.5 -5.5l1 414q22 -6 66 -28z
" />
    <glyph glyph-name="s" unicode="s" horiz-adv-x="535" 
d="M434 718q-16 0 -31 -3v147h31v-144zM499 209q0 -127 -96 -210h-30q96 83 96 210q0 109 -72 188l-124 136q-35 39 -35 86q0 44 29.5 71.5t73.5 27.5h33v-4q-81 -20 -81 -110q0 -36 30 -71l115 -136q61 -72 61 -188zM401 209q0 -86 -61.5 -147.5t-147.5 -61.5
q-93 0 -156 69l57 51q40 -45 99 -45q55 0 94 39.5t39 94.5q0 52 -35 91l-124 137q-72 80 -72 182q0 103 72.5 173t175.5 70v-75q-72 0 -122.5 -48t-50.5 -120q0 -75 52 -132l125 -136q55 -60 55 -142z" />
    <glyph glyph-name="t" unicode="t" horiz-adv-x="736" 
d="M700 718h-31v144h31v-144zM618 718l-159 -79v-639h-31v718h190zM214 687h-178v31h178v-31zM608 787h-248v-787h-75v787h-249v75h572v-75z" />
    <glyph glyph-name="u" unicode="u" horiz-adv-x="862" 
d="M826 345q0 -105 -52 -199q-51 -90 -137 -147h-31q87 56 138.5 148t51.5 198v517h30v-517zM727 345q0 -142 -101.5 -243.5t-243.5 -101.5q-143 0 -244.5 101.5t-101.5 243.5v517h76v-517q0 -111 79 -190.5t191 -79.5q110 0 190 79.5t80 190.5v517h75v-517zM397 144h-15
q-83 0 -143 59t-60 142v517h84l-53 -517q0 -78 54.5 -136t132.5 -65z" />
    <glyph glyph-name="v" unicode="v" horiz-adv-x="853" 
d="M817 862l-322 -862h-31l323 862h30zM390 398l-15 -42l-186 506h83zM715 862l-340 -924l-339 924h81l258 -703l259 703h81z" />
    <glyph glyph-name="w" unicode="w" horiz-adv-x="1393" 
d="M1357 863l-317 -863h-30l317 863h30zM933 408l-16 -44l-173 499h84zM1254 863l-340 -916l-269 763l-270 -763l-339 916h81l257 -699l271 773l270 -773l258 699h81zM387 408l-14 -44l-184 499h83zM660 461l-163 -461h-31l179 505z" />
    <glyph glyph-name="x" unicode="x" horiz-adv-x="919" 
d="M883 0h-31l-322 483l252 379h31l-253 -379zM419 696l-16 -23l-126 189h84zM771 0h-92l-276 414l-276 -414h-91l322 483l-253 379h90l208 -312l207 312h92l-254 -379zM431 253l-192 -253h-31l195 292z" />
    <glyph glyph-name="y" unicode="y" horiz-adv-x="990" 
d="M954 862l-475 -863h-30l475 863h30zM518 565l-10 -21l-281 318h83zM845 862l-472 -862h-87l195 355l-445 507h101l383 -436l239 436h86z" />
    <glyph glyph-name="z" unicode="z" horiz-adv-x="850" 
d="M814 862l-480 -718h-30l479 718h31zM425 720l-13 -20h-323v20h336zM778 -1h-31v145h31v-145zM701 862l-524 -787h509v-75h-650l524 787h-475v75h616z" />
    <glyph glyph-name="braceleft" unicode="{" horiz-adv-x="72" 
 />
    <glyph glyph-name="bar" unicode="|" horiz-adv-x="72" 
 />
    <glyph glyph-name="braceright" unicode="}" horiz-adv-x="72" 
 />
    <glyph glyph-name="asciitilde" unicode="~" horiz-adv-x="72" 
 />
    <glyph glyph-name="glyph98" horiz-adv-x="72" 
 />
    <glyph glyph-name="Euro" unicode="&#x20ac;" horiz-adv-x="901" 
d="M865 848l-111 -169q-7 5 -21 13l102 156h30zM576 728q-150 -8 -233 -132h-31q41 61 106.5 97t141.5 36h8q5 -1 8 -1zM855 378h-61v-115h-451q84 -126 233 -132h-16q-77 0 -147 38q-73 40 -107 106h457v115h61v206h31v-218zM865 11h-30l-102 156q14 8 21 13zM764 37
q-94 -50 -204 -50q-156 0 -276.5 97t-155.5 246h-92v76h82q-1 8 -1 23t1 23h-82v76h92q35 149 155.5 246t276.5 97q113 0 204 -50l-41 -63q-76 38 -163 38q-125 0 -223 -75t-131 -193h557v-76h-570v-46h509v-76h-496q33 -117 131.5 -192.5t222.5 -75.5q87 0 163 38z" />
    <glyph glyph-name="glyph100" horiz-adv-x="72" 
 />
    <glyph glyph-name="quotesinglbase" unicode="&#x201a;" horiz-adv-x="247" 
d="M211 91l-128 -204h-47l76 204h99z" />
    <glyph glyph-name="florin" unicode="&#x192;" horiz-adv-x="72" 
 />
    <glyph glyph-name="quotedblbase" unicode="&#x201e;" horiz-adv-x="357" 
d="M321 91l-128 -204h-47l76 204h99zM211 91l-128 -204h-47l76 204h99z" />
    <glyph glyph-name="ellipsis" unicode="&#x2026;" horiz-adv-x="506" 
d="M470 0h-30v110h30v-110zM372 0h-76v110h76v-110zM242 0h-76v110h76v-110zM112 0h-76v110h76v-110z" />
    <glyph glyph-name="dagger" unicode="&#x2020;" horiz-adv-x="72" 
 />
    <glyph glyph-name="daggerdbl" unicode="&#x2021;" horiz-adv-x="72" 
 />
    <glyph glyph-name="circumflex" unicode="&#x2c6;" horiz-adv-x="445" 
d="M409 892h-42l-145 119l-144 -119h-42l159 199h55z" />
    <glyph glyph-name="perthousand" unicode="&#x2030;" horiz-adv-x="72" 
 />
    <glyph glyph-name="Scaron" unicode="&#x160;" horiz-adv-x="535" 
d="M434 718q-16 0 -31 -3v147h31v-144zM499 209q0 -127 -96 -210h-30q96 83 96 210q0 109 -72 188l-124 136q-35 39 -35 86q0 44 29.5 71.5t73.5 27.5h33v-4q-81 -20 -81 -110q0 -36 30 -71l115 -136q61 -72 61 -188zM401 209q0 -86 -61.5 -147.5t-147.5 -61.5
q-93 0 -156 69l57 51q40 -45 99 -45q55 0 94 39.5t39 94.5q0 52 -35 91l-124 137q-72 80 -72 182q0 103 72.5 173t175.5 70v-75q-72 0 -122.5 -48t-50.5 -120q0 -75 52 -132l125 -136q55 -60 55 -142zM469 1088l-159 -199h-55l-159 199h42l145 -119l144 119h42z" />
    <glyph glyph-name="guilsinglleft" unicode="&#x2039;" horiz-adv-x="270" 
d="M234 178h-28l-170 251l170 252h28l-99 -252z" />
    <glyph glyph-name="OE" unicode="&#x152;" horiz-adv-x="1350" 
d="M1285 700h-186l-109 -301v321h265v142h30v-162zM1285 186h-264v-42h-31v62h265v193h30v-213zM1314 -1h-31v145h31v-145zM1222 0h-376v48q-30 -27 -64 -49h-30q50 32 94 78v108q-62 -93 -159.5 -145t-208.5 -52q-182 0 -312 130t-130 312q0 183 129.5 313.5t312.5 130.5
q111 0 208.5 -52.5t159.5 -145.5v108q-41 44 -94 78h30q33 -20 64 -48v48h346v-75h-269v-457h271v-75h-271v-180h299v-75zM845 430q0 152 -107.5 259.5t-259.5 107.5q-151 0 -259 -108t-108 -259t108 -258.5t259 -107.5t259 107.5t108 258.5zM516 715q-119 -7 -201 -94
t-82 -206q0 -124 89 -213q20 -19 33 -28q56 -37 139 -42h-16q-121 0 -209.5 88.5t-88.5 209.5q0 124 87 212t211 88q7 0 38 -15z" />
    <glyph glyph-name="glyph112" horiz-adv-x="72" 
 />
    <glyph glyph-name="glyph113" horiz-adv-x="72" 
 />
    <glyph glyph-name="glyph114" horiz-adv-x="72" 
 />
    <glyph glyph-name="glyph115" horiz-adv-x="72" 
 />
    <glyph glyph-name="quoteleft" unicode="&#x2018;" horiz-adv-x="247" 
d="M211 881l-76 -204h-99l128 204h47z" />
    <glyph glyph-name="quoteright" unicode="&#x2019;" horiz-adv-x="247" 
d="M211 881l-128 -204h-47l76 204h99z" />
    <glyph glyph-name="quotedblleft" unicode="&#x201c;" horiz-adv-x="357" 
d="M321 881l-76 -204h-99l128 204h47zM211 881l-76 -204h-99l128 204h47z" />
    <glyph glyph-name="quotedblright" unicode="&#x201d;" horiz-adv-x="357" 
d="M321 881l-128 -204h-47l76 204h99zM211 881l-128 -204h-47l76 204h99z" />
    <glyph glyph-name="bullet" unicode="&#x2022;" horiz-adv-x="442" 
d="M406 418q0 -76 -54 -130t-131 -54t-131 54t-54 130q0 77 54.5 131t130.5 54q77 0 131 -54t54 -131z" />
    <glyph glyph-name="endash" unicode="&#x2013;" horiz-adv-x="553" 
d="M517 308h-424v16h401v196h23v-212zM432 391h-396v76h396v-76z" />
    <glyph glyph-name="emdash" unicode="&#x2014;" horiz-adv-x="1043" 
d="M1007 308h-914v16h891v196h23v-212zM922 391h-886v76h886v-76z" />
    <glyph glyph-name="tilde" unicode="&#x2dc;" horiz-adv-x="439" 
d="M403 1006q0 -48 -31 -81t-78 -33q-18 0 -35 6l-128 42q-9 3 -18 3q-48 0 -60 -54h-17v7q-2 45 31 77t79 32q17 0 33 -5l129 -42q10 -3 19 -3q44 0 55 40q1 4 3 11h18z" />
    <glyph glyph-name="trademark" unicode="&#x2122;" horiz-adv-x="72" 
 />
    <glyph glyph-name="scaron" unicode="&#x161;" horiz-adv-x="535" 
d="M434 718q-16 0 -31 -3v147h31v-144zM499 209q0 -127 -96 -210h-30q96 83 96 210q0 109 -72 188l-124 136q-35 39 -35 86q0 44 29.5 71.5t73.5 27.5h33v-4q-81 -20 -81 -110q0 -36 30 -71l115 -136q61 -72 61 -188zM401 209q0 -86 -61.5 -147.5t-147.5 -61.5
q-93 0 -156 69l57 51q40 -45 99 -45q55 0 94 39.5t39 94.5q0 52 -35 91l-124 137q-72 80 -72 182q0 103 72.5 173t175.5 70v-75q-72 0 -122.5 -48t-50.5 -120q0 -75 52 -132l125 -136q55 -60 55 -142zM469 1088l-159 -199h-55l-159 199h42l145 -119l144 119h42z" />
    <glyph glyph-name="guilsinglright" unicode="&#x203a;" horiz-adv-x="282" 
d="M36 178h28l170 251l-170 252h-28l99 -252z" />
    <glyph glyph-name="oe" unicode="&#x153;" horiz-adv-x="1350" 
d="M1285 700h-186l-109 -301v321h265v142h30v-162zM1285 186h-264v-42h-31v62h265v193h30v-213zM1314 -1h-31v145h31v-145zM1222 0h-376v48q-30 -27 -64 -49h-30q50 32 94 78v108q-62 -93 -159.5 -145t-208.5 -52q-182 0 -312 130t-130 312q0 183 129.5 313.5t312.5 130.5
q111 0 208.5 -52.5t159.5 -145.5v108q-41 44 -94 78h30q33 -20 64 -48v48h346v-75h-269v-457h271v-75h-271v-180h299v-75zM845 430q0 152 -107.5 259.5t-259.5 107.5q-151 0 -259 -108t-108 -259t108 -258.5t259 -107.5t259 107.5t108 258.5zM516 715q-119 -7 -201 -94
t-82 -206q0 -124 89 -213q20 -19 33 -28q56 -37 139 -42h-16q-121 0 -209.5 88.5t-88.5 209.5q0 124 87 212t211 88q7 0 38 -15z" />
    <glyph glyph-name="glyph128" horiz-adv-x="72" 
 />
    <glyph glyph-name="glyph129" horiz-adv-x="72" 
 />
    <glyph glyph-name="Ydieresis" unicode="&#x178;" horiz-adv-x="990" 
d="M954 862l-475 -863h-30l475 863h30zM518 565l-10 -21l-281 318h83zM845 862l-472 -862h-87l195 355l-445 507h101l383 -436l239 436h86zM609 946q0 -24 -17 -41t-40 -17q-24 0 -41 17t-17 41q0 23 17 40t41 17q23 0 40 -17t17 -40zM450 946q0 -24 -16.5 -41t-40.5 -17
t-40.5 17t-16.5 41q0 23 17 40t40 17t40 -17t17 -40z" />
    <glyph glyph-name="exclamdown" unicode="&#xa1;" horiz-adv-x="246" 
d="M210 646h-30v110h30v-110zM112 646h-76v110h76v-110zM210 -105h-30v705h-144v15h174v-720zM112 -105h-76v675h76v-675z" />
    <glyph glyph-name="cent" unicode="&#xa2;" horiz-adv-x="612" 
d="M576 137q-48 -33 -115 -51v-86h-31v86q64 15 116 51l-116 175v273l116 175q-57 37 -116 50v51h31v-51q58 -13 115 -50l-115 -175v-273zM486 717l-43 -63q-36 19 -80 22v-456q40 3 78 22l43 -63q-58 -30 -121 -35v-144h-76v148q-108 20 -179.5 105t-71.5 196t72 195.5
t179 103.5v113h76v-108q67 -6 123 -36zM287 226v445q-76 -18 -126 -80t-50 -142q0 -79 49.5 -141.5t126.5 -81.5zM219 343q-39 44 -39 106q0 60 39 104v-53q-9 -29 -9 -51q0 -23 9 -52v-54z" />
    <glyph glyph-name="sterling" unicode="&#xa3;" horiz-adv-x="579" 
d="M405 717h-31v144h31v-144zM338 716q-20 -2 -34.5 -17.5t-14.5 -37.5v-309h-30v309q0 22 14 38.5t35 16.5h30zM451 0h-336v209h-79v75h79v377q0 82 58 141t140 59v-77q-50 0 -86 -36t-36 -87v-377h139v-75h-139v-133h260v-76zM543 0h-31v142h31v-142zM422 142h-162v12h131
v198h31v-210z" />
    <glyph glyph-name="currency" unicode="&#xa4;" horiz-adv-x="901" 
d="M865 848l-111 -169q-7 5 -21 13l102 156h30zM576 728q-150 -8 -233 -132h-31q41 61 106.5 97t141.5 36h8q5 -1 8 -1zM855 378h-61v-115h-451q84 -126 233 -132h-16q-77 0 -147 38q-73 40 -107 106h457v115h61v206h31v-218zM865 11h-30l-102 156q14 8 21 13zM764 37
q-94 -50 -204 -50q-156 0 -276.5 97t-155.5 246h-92v76h82q-1 8 -1 23t1 23h-82v76h92q35 149 155.5 246t276.5 97q113 0 204 -50l-41 -63q-76 38 -163 38q-125 0 -223 -75t-131 -193h557v-76h-570v-46h509v-76h-496q33 -117 131.5 -192.5t222.5 -75.5q87 0 163 38z" />
    <glyph glyph-name="yen" unicode="&#xa5;" horiz-adv-x="1104" 
d="M954 861l-151 -275h-31l151 275h31zM519 564l-12 -21l-280 318h84zM1068 263h-443l-145 -265h-30l151 277h437v321h30v-333zM975 330h-421l-182 -331h-86l182 331h-416v76h384l-41 46h-343v76h277l-293 333h101l383 -436l239 436h87l-183 -333h312v-76h-353l-26 -46h379
v-76z" />
    <glyph glyph-name="brokenbar" unicode="&#xa6;" 
 />
    <glyph glyph-name="section" unicode="&#xa7;" 
 />
    <glyph glyph-name="dieresis" unicode="&#xa8;" horiz-adv-x="345" 
d="M309 946q0 -24 -17 -41t-40 -17q-24 0 -41 17t-17 41q0 23 17 40t41 17q23 0 40 -17t17 -40zM150 946q0 -24 -16.5 -41t-40.5 -17t-40.5 17t-16.5 41q0 23 17 40t40 17t40 -17t17 -40z" />
    <glyph glyph-name="copyright" unicode="&#xa9;" 
 />
    <glyph glyph-name="ordfeminine" unicode="&#xaa;" horiz-adv-x="562" 
d="M526 397h-31l-180 477h31zM422 398h-80l-17 44h-193l-16 -44h-80l178 473h30zM298 517l-69 188l-69 -188h138z" />
    <glyph glyph-name="guillemotleft" unicode="&#xab;" horiz-adv-x="400" 
d="M364 178h-28l-170 251l170 252h28l-99 -252zM234 178h-28l-170 251l170 252h28l-99 -252z" />
    <glyph glyph-name="logicalnot" unicode="&#xac;" 
 />
    <glyph glyph-name="minus" unicode="&#xad;" 
 />
    <glyph glyph-name="minus" unicode="&#x2260;" 
 />
    <glyph glyph-name="minus" unicode="&#x2212;" 
 />
    <glyph glyph-name="registered" unicode="&#xae;" 
 />
    <glyph glyph-name="macron" unicode="&#xaf;" 
 />
    <glyph glyph-name="macron" unicode="&#x2c9;" 
 />
    <glyph glyph-name="degree" unicode="&#xb0;" 
 />
    <glyph glyph-name="degree" unicode="&#x221e;" 
 />
    <glyph glyph-name="plusminus" unicode="&#xb1;" 
 />
    <glyph glyph-name="twosuperior" unicode="&#xb2;" 
 />
    <glyph glyph-name="twosuperior" unicode="&#x2264;" 
 />
    <glyph glyph-name="threesuperior" unicode="&#xb3;" 
 />
    <glyph glyph-name="threesuperior" unicode="&#x2265;" 
 />
    <glyph glyph-name="acute" unicode="&#xb4;" horiz-adv-x="310" 
d="M274 1091l-183 -204h-55l124 204h114z" />
    <glyph glyph-name="mu1" unicode="&#xb5;" 
 />
    <glyph glyph-name="mu1" unicode="&#x3bc;" 
 />
    <glyph glyph-name="paragraph" unicode="&#xb6;" 
 />
    <glyph glyph-name="paragraph" unicode="&#x2202;" 
 />
    <glyph glyph-name="periodcentered" unicode="&#xb7;" 
 />
    <glyph glyph-name="periodcentered" unicode="&#x2219;" 
 />
    <glyph glyph-name="periodcentered" unicode="&#x2211;" 
 />
    <glyph glyph-name="cedilla" unicode="&#xb8;" horiz-adv-x="321" 
d="M285 -166q0 -39 -51 -66.5t-123 -27.5h-35q-23 1 -34 1l-6 27h11q56 0 96.5 18.5t40.5 43.5t-35.5 42.5t-87.5 19.5l75 127h61l-54 -93q60 -6 101 -32t41 -60z" />
    <glyph glyph-name="cedilla" unicode="&#x220f;" horiz-adv-x="321" 
d="M285 -166q0 -39 -51 -66.5t-123 -27.5h-35q-23 1 -34 1l-6 27h11q56 0 96.5 18.5t40.5 43.5t-35.5 42.5t-87.5 19.5l75 127h61l-54 -93q60 -6 101 -32t41 -60z" />
    <glyph glyph-name="onesuperior" unicode="&#xb9;" 
 />
    <glyph glyph-name="onesuperior" unicode="&#x3c0;" 
 />
    <glyph glyph-name="ordmasculine" unicode="&#xba;" horiz-adv-x="650" 
d="M614 627q0 -139 -112 -230h-30q112 94 112 231q0 102 -52 177q-24 34 -65 69h31q116 -98 116 -247zM516 633q0 -99 -70.5 -170t-169.5 -71t-169.5 71t-70.5 170t70.5 169.5t169.5 70.5t169.5 -70.5t70.5 -169.5zM441 633q0 68 -48.5 116t-116.5 48t-116.5 -48t-48.5 -116
q0 -69 48 -117t117 -48t117 48t48 117zM292 537q-7 -1 -15 -1q-41 0 -69.5 27t-28.5 69q0 41 28 69.5t70 28.5h7q5 -1 7 -1q-36 -7 -59 -34t-23 -63t23.5 -62.5t59.5 -32.5z" />
    <glyph glyph-name="ordmasculine" unicode="&#x222b;" horiz-adv-x="650" 
d="M614 627q0 -139 -112 -230h-30q112 94 112 231q0 102 -52 177q-24 34 -65 69h31q116 -98 116 -247zM516 633q0 -99 -70.5 -170t-169.5 -71t-169.5 71t-70.5 170t70.5 169.5t169.5 70.5t169.5 -70.5t70.5 -169.5zM441 633q0 68 -48.5 116t-116.5 48t-116.5 -48t-48.5 -116
q0 -69 48 -117t117 -48t117 48t48 117zM292 537q-7 -1 -15 -1q-41 0 -69.5 27t-28.5 69q0 41 28 69.5t70 28.5h7q5 -1 7 -1q-36 -7 -59 -34t-23 -63t23.5 -62.5t59.5 -32.5z" />
    <glyph glyph-name="guillemotright" unicode="&#xbb;" horiz-adv-x="400" 
d="M36 178h28l170 251l-170 252h-28l99 -252zM166 178h28l170 251l-170 252h-28l99 -252z" />
    <glyph glyph-name="onequarter" unicode="&#xbc;" 
 />
    <glyph glyph-name="onehalf" unicode="&#xbd;" 
 />
    <glyph glyph-name="onehalf" unicode="&#x3a9;" 
 />
    <glyph glyph-name="threequarters" unicode="&#xbe;" 
 />
    <glyph glyph-name="questiondown" unicode="&#xbf;" horiz-adv-x="562" 
d="M440 610h-31v142h31v-142zM343 639h-77v113h77v-113zM440 500q-2 -123 -89 -219l-126 -139q-17 -18 -17 -41q0 -53 52 -66q-8 -2 -16 -2q-27 0 -46.5 20.5t-19.5 47.5q0 22 17 41l126 139q86 95 88 219v63h31v-63zM399 -41q-61 -69 -154 -69q-87 0 -148 61t-61 148
q0 81 54 141l124 137q52 57 52 132v55h77v-55q0 -102 -73 -183l-123 -136q-36 -40 -36 -91q0 -55 39.5 -94.5t94.5 -39.5q57 0 99 44zM526 -38q-22 -25 -70 -72h-31q5 4 70 72l-56 52h30z" />
    <glyph glyph-name="Agrave" unicode="&#xc0;" horiz-adv-x="840" 
d="M804 -1h-30l-324 862h31zM701 0h-80l-32 88h-440l-32 -88h-81l333 905zM227 19l-8 -20h-30l8 20h30zM560 163l-191 521l-192 -521h383zM405 390l-101 -158h-30l95 256zM414 927h-55l-183 204h114z" />
    <glyph glyph-name="Aacute" unicode="&#xc1;" horiz-adv-x="840" 
d="M804 -1h-30l-324 862h31zM701 0h-80l-32 88h-440l-32 -88h-81l333 905zM227 19l-8 -20h-30l8 20h30zM560 163l-191 521l-192 -521h383zM405 390l-101 -158h-30l95 256zM574 1131l-183 -204h-55l124 204h114z" />
    <glyph glyph-name="Acircumflex" unicode="&#xc2;" horiz-adv-x="840" 
d="M804 -1h-30l-324 862h31zM701 0h-80l-32 88h-440l-32 -88h-81l333 905zM227 19l-8 -20h-30l8 20h30zM560 163l-191 521l-192 -521h383zM405 390l-101 -158h-30l95 256zM559 892h-42l-145 119l-144 -119h-42l159 199h55z" />
    <glyph glyph-name="Atilde" unicode="&#xc3;" horiz-adv-x="840" 
d="M804 -1h-30l-324 862h31zM701 0h-80l-32 88h-440l-32 -88h-81l333 905zM227 19l-8 -20h-30l8 20h30zM560 163l-191 521l-192 -521h383zM405 390l-101 -158h-30l95 256zM573 1016q0 -48 -31 -81t-78 -33q-18 0 -35 6l-128 42q-9 3 -18 3q-48 0 -60 -54h-17v7q-2 45 31 77
t79 32q17 0 33 -5l129 -42q10 -3 19 -3q44 0 55 40q1 4 3 11h18z" />
    <glyph glyph-name="Atilde" unicode="&#x221a;" horiz-adv-x="840" 
d="M804 -1h-30l-324 862h31zM701 0h-80l-32 88h-440l-32 -88h-81l333 905zM227 19l-8 -20h-30l8 20h30zM560 163l-191 521l-192 -521h383zM405 390l-101 -158h-30l95 256zM573 1016q0 -48 -31 -81t-78 -33q-18 0 -35 6l-128 42q-9 3 -18 3q-48 0 -60 -54h-17v7q-2 45 31 77
t79 32q17 0 33 -5l129 -42q10 -3 19 -3q44 0 55 40q1 4 3 11h18z" />
    <glyph glyph-name="Adieresis" unicode="&#xc4;" horiz-adv-x="840" 
d="M804 -1h-30l-324 862h31zM701 0h-80l-32 88h-440l-32 -88h-81l333 905zM227 19l-8 -20h-30l8 20h30zM560 163l-191 521l-192 -521h383zM405 390l-101 -158h-30l95 256zM507 946q0 -24 -17 -41t-40 -17q-24 0 -41 17t-17 41q0 23 17 40t41 17q23 0 40 -17t17 -40zM348 946
q0 -24 -16.5 -41t-40.5 -17t-40.5 17t-16.5 41q0 23 17 40t40 17t40 -17t17 -40z" />
    <glyph glyph-name="Aring" unicode="&#xc5;" horiz-adv-x="840" 
d="M804 -1h-30l-324 862h31zM701 0h-80l-32 88h-440l-32 -88h-81l333 905zM227 19l-8 -20h-30l8 20h30zM560 163l-191 521l-192 -521h383zM405 390l-101 -158h-30l95 256zM487 1003q0 -50 -35.5 -85.5t-85.5 -35.5t-86 35.5t-36 85.5t36 86t86 36t85.5 -36t35.5 -86z
M442 1003q0 32 -22.5 54.5t-53.5 22.5t-54 -22.5t-23 -54.5q0 -31 23 -53.5t54 -22.5t53.5 22.5t22.5 53.5z" />
    <glyph glyph-name="Aring" unicode="&#x2248;" horiz-adv-x="840" 
d="M804 -1h-30l-324 862h31zM701 0h-80l-32 88h-440l-32 -88h-81l333 905zM227 19l-8 -20h-30l8 20h30zM560 163l-191 521l-192 -521h383zM405 390l-101 -158h-30l95 256zM487 1003q0 -50 -35.5 -85.5t-85.5 -35.5t-86 35.5t-36 85.5t36 86t86 36t85.5 -36t35.5 -86z
M442 1003q0 32 -22.5 54.5t-53.5 22.5t-54 -22.5t-23 -54.5q0 -31 23 -53.5t54 -22.5t53.5 22.5t22.5 53.5z" />
    <glyph glyph-name="AE" unicode="&#xc6;" horiz-adv-x="1102" 
d="M1036 702h-200l-94 -305v320h263v144h31v-159zM1038 170h-265v-28h-31v43h265v212h31v-227zM1066 0h-30v142h30v-142zM975 0h-376v253h-300l-172 -253h-91l581 861h327v-77h-269v-455h271v-76h-271v-177h300v-76zM366 185l-127 -185h-30l126 185h31zM599 329v369
l-250 -369h250zM531 430l-23 -33h-30l53 79v-46z" />
    <glyph glyph-name="AE" unicode="&#x2206;" horiz-adv-x="1102" 
d="M1036 702h-200l-94 -305v320h263v144h31v-159zM1038 170h-265v-28h-31v43h265v212h31v-227zM1066 0h-30v142h30v-142zM975 0h-376v253h-300l-172 -253h-91l581 861h327v-77h-269v-455h271v-76h-271v-177h300v-76zM366 185l-127 -185h-30l126 185h31zM599 329v369
l-250 -369h250zM531 430l-23 -33h-30l53 79v-46z" />
    <glyph glyph-name="Ccedilla" unicode="&#xc7;" horiz-adv-x="851" 
d="M795 772l-61 -91q-12 8 -22 13l62 93zM815 60l-22 -14l-81 122q16 8 22 13zM722 61q-109 -73 -243 -73q-183 0 -313 130t-130 312q0 183 130 313.5t313 130.5q131 0 243 -73l-41 -64q-90 60 -202 60q-152 0 -259.5 -107.5t-107.5 -259.5q0 -151 108 -258.5t259 -107.5
q110 0 202 60zM517 715q-119 -7 -201.5 -93.5t-82.5 -206.5q0 -150 123 -241q64 -38 139 -42h-16q-81 0 -153 42q-67 39 -106.5 107.5t-39.5 148.5q0 124 88 212t211 88q6 0 38 -15zM515 -166q0 -39 -51 -66.5t-123 -27.5h-35q-23 1 -34 1l-6 27h11q56 0 96.5 18.5
t40.5 43.5t-35.5 42.5t-87.5 19.5l75 127h61l-54 -93q60 -6 101 -32t41 -60z" />
    <glyph glyph-name="Egrave" unicode="&#xc8;" horiz-adv-x="540" 
d="M475 700h-186l-109 -301v321h265v142h30v-162zM412 0h-376v862h346v-75h-269v-457h271v-75h-271v-180h299v-75zM475 186h-264v-42h-31v62h265v193h30v-213zM504 -1h-31v145h31v-145zM324 887h-55l-183 204h114z" />
    <glyph glyph-name="Eacute" unicode="&#xc9;" horiz-adv-x="540" 
d="M475 700h-186l-109 -301v321h265v142h30v-162zM412 0h-376v862h346v-75h-269v-457h271v-75h-271v-180h299v-75zM475 186h-264v-42h-31v62h265v193h30v-213zM504 -1h-31v145h31v-145zM444 1091l-183 -204h-55l124 204h114z" />
    <glyph glyph-name="Ecircumflex" unicode="&#xa0;" horiz-adv-x="540" 
d="M475 700h-186l-109 -301v321h265v142h30v-162zM412 0h-376v862h346v-75h-269v-457h271v-75h-271v-180h299v-75zM475 186h-264v-42h-31v62h265v193h30v-213zM504 -1h-31v145h31v-145zM409 892h-42l-145 119l-144 -119h-42l159 199h55z" />
    <glyph glyph-name="Ecircumflex" unicode="&#xca;" horiz-adv-x="540" 
d="M475 700h-186l-109 -301v321h265v142h30v-162zM412 0h-376v862h346v-75h-269v-457h271v-75h-271v-180h299v-75zM475 186h-264v-42h-31v62h265v193h30v-213zM504 -1h-31v145h31v-145zM409 892h-42l-145 119l-144 -119h-42l159 199h55z" />
    <glyph glyph-name="Edieresis" unicode="&#xcb;" horiz-adv-x="540" 
d="M475 700h-186l-109 -301v321h265v142h30v-162zM412 0h-376v862h346v-75h-269v-457h271v-75h-271v-180h299v-75zM475 186h-264v-42h-31v62h265v193h30v-213zM504 -1h-31v145h31v-145zM349 946q0 -24 -17 -41t-40 -17q-24 0 -41 17t-17 41q0 23 17 40t41 17q23 0 40 -17
t17 -40zM190 946q0 -24 -16.5 -41t-40.5 -17t-40.5 17t-16.5 41q0 23 17 40t40 17t40 -17t17 -40z" />
    <glyph glyph-name="Igrave" unicode="&#xcc;" horiz-adv-x="277" 
d="M241 863l-30 -863h-31v863h61zM111 0h-75v863h75v-863zM104 887h-55l-183 204h114z" />
    <glyph glyph-name="Iacute" unicode="&#xcd;" horiz-adv-x="277" 
d="M241 863l-30 -863h-31v863h61zM111 0h-75v863h75v-863zM284 1091l-183 -204h-55l124 204h114z" />
    <glyph glyph-name="Icircumflex" unicode="&#xce;" horiz-adv-x="277" 
d="M241 863l-30 -863h-31v863h61zM111 0h-75v863h75v-863zM263 892h-42l-145 119l-144 -119h-42l159 199h55z" />
    <glyph glyph-name="Idieresis" unicode="&#xcf;" horiz-adv-x="277" 
d="M241 863l-30 -863h-31v863h61zM111 0h-75v863h75v-863zM209 946q0 -24 -17 -41t-40 -17q-24 0 -41 17t-17 41q0 23 17 40t41 17q23 0 40 -17t17 -40zM50 946q0 -24 -16.5 -41t-40.5 -17t-40.5 17t-16.5 41q0 23 17 40t40 17t40 -17t17 -40z" />
    <glyph glyph-name="Eth" unicode="&#xd0;" horiz-adv-x="680" 
d="M644 430q0 -130 -65 -247.5t-176 -184.5h-30q110 67 175.5 184.5t65.5 247.5q0 129 -64.5 246t-173.5 185h31q109 -68 173 -185t64 -246zM545 430q0 -162 -107 -289q-110 -129 -270 -141l-41 -3v256h-91v76h91v535l41 -3q160 -12 270 -142q107 -126 107 -289zM470 430
q0 121 -75 222t-192 127v-450h110v-76h-110v-170q117 26 192 126t75 221zM320 639l-19 -242h-30v279q24 -14 49 -37zM389 253q-16 -22 -41 -47h-116v14h127v177h30v-144z" />
    <glyph glyph-name="Ntilde" unicode="&#xd1;" horiz-adv-x="842" 
d="M806 -1h-30v842h30v-842zM570 343l-410 498h29l381 -462v-36zM710 -52l-600 738v-686h-74v893l600 -738v686h74v-893zM246 414l-40 -414h-29v499zM563 1006q0 -48 -31 -81t-78 -33q-18 0 -35 6l-128 42q-9 3 -18 3q-48 0 -60 -54h-17v7q-2 45 31 77t79 32q17 0 33 -5
l129 -42q10 -3 19 -3q44 0 55 40q1 4 3 11h18z" />
    <glyph glyph-name="Ograve" unicode="&#xd2;" horiz-adv-x="1055" 
d="M1019 430q0 -134 -65 -250q-64 -112 -174 -181h-30q109 69 173 181q65 116 65 250t-65 250q-63 112 -172 182h30q109 -70 173 -182q65 -116 65 -250zM921 430q0 -182 -130.5 -312t-313.5 -130t-312 129.5t-129 312.5t129 313.5t312 130.5t313.5 -130.5t130.5 -313.5z
M844 430q0 152 -107.5 259.5t-259.5 107.5q-151 0 -258.5 -107.5t-107.5 -259.5q0 -151 107.5 -258.5t258.5 -107.5q152 0 259.5 107.5t107.5 258.5zM515 715q-118 -7 -200.5 -94t-82.5 -206q0 -150 122 -241q66 -38 139 -42h-16q-122 0 -209.5 87.5t-87.5 210.5
q0 124 87 212t210 88q6 0 38 -15zM544 897h-55l-183 204h114z" />
    <glyph glyph-name="Oacute" unicode="&#xd3;" horiz-adv-x="1055" 
d="M1019 430q0 -134 -65 -250q-64 -112 -174 -181h-30q109 69 173 181q65 116 65 250t-65 250q-63 112 -172 182h30q109 -70 173 -182q65 -116 65 -250zM921 430q0 -182 -130.5 -312t-313.5 -130t-312 129.5t-129 312.5t129 313.5t312 130.5t313.5 -130.5t130.5 -313.5z
M844 430q0 152 -107.5 259.5t-259.5 107.5q-151 0 -258.5 -107.5t-107.5 -259.5q0 -151 107.5 -258.5t258.5 -107.5q152 0 259.5 107.5t107.5 258.5zM515 715q-118 -7 -200.5 -94t-82.5 -206q0 -150 122 -241q66 -38 139 -42h-16q-122 0 -209.5 87.5t-87.5 210.5
q0 124 87 212t210 88q6 0 38 -15zM694 1101l-183 -204h-55l124 204h114z" />
    <glyph glyph-name="Ocircumflex" unicode="&#xd4;" horiz-adv-x="1055" 
d="M1019 430q0 -134 -65 -250q-64 -112 -174 -181h-30q109 69 173 181q65 116 65 250t-65 250q-63 112 -172 182h30q109 -70 173 -182q65 -116 65 -250zM921 430q0 -182 -130.5 -312t-313.5 -130t-312 129.5t-129 312.5t129 313.5t312 130.5t313.5 -130.5t130.5 -313.5z
M844 430q0 152 -107.5 259.5t-259.5 107.5q-151 0 -258.5 -107.5t-107.5 -259.5q0 -151 107.5 -258.5t258.5 -107.5q152 0 259.5 107.5t107.5 258.5zM515 715q-118 -7 -200.5 -94t-82.5 -206q0 -150 122 -241q66 -38 139 -42h-16q-122 0 -209.5 87.5t-87.5 210.5
q0 124 87 212t210 88q6 0 38 -15zM659 892h-42l-145 119l-144 -119h-42l159 199h55z" />
    <glyph glyph-name="Otilde" unicode="&#xd5;" horiz-adv-x="1055" 
d="M1019 430q0 -134 -65 -250q-64 -112 -174 -181h-30q109 69 173 181q65 116 65 250t-65 250q-63 112 -172 182h30q109 -70 173 -182q65 -116 65 -250zM921 430q0 -182 -130.5 -312t-313.5 -130t-312 129.5t-129 312.5t129 313.5t312 130.5t313.5 -130.5t130.5 -313.5z
M844 430q0 152 -107.5 259.5t-259.5 107.5q-151 0 -258.5 -107.5t-107.5 -259.5q0 -151 107.5 -258.5t258.5 -107.5q152 0 259.5 107.5t107.5 258.5zM515 715q-118 -7 -200.5 -94t-82.5 -206q0 -150 122 -241q66 -38 139 -42h-16q-122 0 -209.5 87.5t-87.5 210.5
q0 124 87 212t210 88q6 0 38 -15zM663 1016q0 -48 -31 -81t-78 -33q-18 0 -35 6l-128 42q-9 3 -18 3q-48 0 -60 -54h-17v7q-2 45 31 77t79 32q17 0 33 -5l129 -42q10 -3 19 -3q44 0 55 40q1 4 3 11h18z" />
    <glyph glyph-name="Odieresis" unicode="&#xd6;" horiz-adv-x="1055" 
d="M1019 430q0 -134 -65 -250q-64 -112 -174 -181h-30q109 69 173 181q65 116 65 250t-65 250q-63 112 -172 182h30q109 -70 173 -182q65 -116 65 -250zM921 430q0 -182 -130.5 -312t-313.5 -130t-312 129.5t-129 312.5t129 313.5t312 130.5t313.5 -130.5t130.5 -313.5z
M844 430q0 152 -107.5 259.5t-259.5 107.5q-151 0 -258.5 -107.5t-107.5 -259.5q0 -151 107.5 -258.5t258.5 -107.5q152 0 259.5 107.5t107.5 258.5zM515 715q-118 -7 -200.5 -94t-82.5 -206q0 -150 122 -241q66 -38 139 -42h-16q-122 0 -209.5 87.5t-87.5 210.5
q0 124 87 212t210 88q6 0 38 -15zM613 946q0 -24 -17 -41t-40 -17q-24 0 -41 17t-17 41q0 23 17 40t41 17q23 0 40 -17t17 -40zM454 946q0 -24 -16.5 -41t-40.5 -17t-40.5 17t-16.5 41q0 23 17 40t40 17t40 -17t17 -40z" />
    <glyph glyph-name="multiply" unicode="&#xd7;" 
 />
    <glyph glyph-name="multiply" unicode="&#x25ca;" 
 />
    <glyph glyph-name="Oslash" unicode="&#xd8;" horiz-adv-x="1042" 
d="M1006 783l-96 -97q80 -121 80 -269q0 -129 -64 -242q-61 -108 -166 -176h-30q106 67 167 176q64 113 64 242q0 147 -81 269l96 97l-109 111h29zM894 417q0 -178 -125.5 -303.5t-303.5 -125.5q-155 0 -276 100l-79 -77l-51 52l78 78q-101 119 -101 276q0 177 126 302.5
t303 125.5q157 0 276 -100l78 78l52 -53l-78 -77q101 -120 101 -276zM689 692q-96 81 -224 81q-147 0 -251.5 -104.5t-104.5 -251.5q0 -126 80 -224zM821 417q0 125 -80 224l-501 -500q97 -80 225 -80q147 0 251.5 104t104.5 252zM738 515l-362 -362q47 -23 104 -26h-15
q-64 0 -119 26l383 383q4 -7 9 -21zM480 706q-115 -5 -195.5 -89t-80.5 -200q0 -46 17 -99l-20 -21q-26 57 -26 120q0 119 85.5 204.5t204.5 85.5h8q5 -1 7 -1z" />
    <glyph glyph-name="Ugrave" unicode="&#xd9;" horiz-adv-x="862" 
d="M826 345q0 -105 -52 -199q-51 -90 -137 -147h-31q87 56 138.5 148t51.5 198v517h30v-517zM727 345q0 -142 -101.5 -243.5t-243.5 -101.5q-143 0 -244.5 101.5t-101.5 243.5v517h76v-517q0 -111 79 -190.5t191 -79.5q110 0 190 79.5t80 190.5v517h75v-517zM397 144h-15
q-83 0 -143 59t-60 142v517h84l-53 -517q0 -78 54.5 -136t132.5 -65zM494 887h-55l-183 204h114z" />
    <glyph glyph-name="Uacute" unicode="&#xda;" horiz-adv-x="862" 
d="M826 345q0 -105 -52 -199q-51 -90 -137 -147h-31q87 56 138.5 148t51.5 198v517h30v-517zM727 345q0 -142 -101.5 -243.5t-243.5 -101.5q-143 0 -244.5 101.5t-101.5 243.5v517h76v-517q0 -111 79 -190.5t191 -79.5q110 0 190 79.5t80 190.5v517h75v-517zM397 144h-15
q-83 0 -143 59t-60 142v517h84l-53 -517q0 -78 54.5 -136t132.5 -65zM574 1091l-183 -204h-55l124 204h114z" />
    <glyph glyph-name="Uacute" unicode="&#x2044;" horiz-adv-x="862" 
d="M826 345q0 -105 -52 -199q-51 -90 -137 -147h-31q87 56 138.5 148t51.5 198v517h30v-517zM727 345q0 -142 -101.5 -243.5t-243.5 -101.5q-143 0 -244.5 101.5t-101.5 243.5v517h76v-517q0 -111 79 -190.5t191 -79.5q110 0 190 79.5t80 190.5v517h75v-517zM397 144h-15
q-83 0 -143 59t-60 142v517h84l-53 -517q0 -78 54.5 -136t132.5 -65zM574 1091l-183 -204h-55l124 204h114z" />
    <glyph glyph-name="Ucircumflex" unicode="&#xdb;" horiz-adv-x="862" 
d="M826 345q0 -105 -52 -199q-51 -90 -137 -147h-31q87 56 138.5 148t51.5 198v517h30v-517zM727 345q0 -142 -101.5 -243.5t-243.5 -101.5q-143 0 -244.5 101.5t-101.5 243.5v517h76v-517q0 -111 79 -190.5t191 -79.5q110 0 190 79.5t80 190.5v517h75v-517zM397 144h-15
q-83 0 -143 59t-60 142v517h84l-53 -517q0 -78 54.5 -136t132.5 -65zM589 892h-42l-145 119l-144 -119h-42l159 199h55z" />
    <glyph glyph-name="Udieresis" unicode="&#xdc;" horiz-adv-x="862" 
d="M826 345q0 -105 -52 -199q-51 -90 -137 -147h-31q87 56 138.5 148t51.5 198v517h30v-517zM727 345q0 -142 -101.5 -243.5t-243.5 -101.5q-143 0 -244.5 101.5t-101.5 243.5v517h76v-517q0 -111 79 -190.5t191 -79.5q110 0 190 79.5t80 190.5v517h75v-517zM397 144h-15
q-83 0 -143 59t-60 142v517h84l-53 -517q0 -78 54.5 -136t132.5 -65zM529 946q0 -24 -17 -41t-40 -17q-24 0 -41 17t-17 41q0 23 17 40t41 17q23 0 40 -17t17 -40zM370 946q0 -24 -16.5 -41t-40.5 -17t-40.5 17t-16.5 41q0 23 17 40t40 17t40 -17t17 -40z" />
    <glyph glyph-name="Yacute" unicode="&#xdd;" horiz-adv-x="990" 
d="M954 862l-475 -863h-30l475 863h30zM518 565l-10 -21l-281 318h83zM845 862l-472 -862h-87l195 355l-445 507h101l383 -436l239 436h86zM674 1091l-183 -204h-55l124 204h114z" />
    <glyph glyph-name="Thorn" unicode="&#xde;" horiz-adv-x="544" 
d="M508 429q0 -133 -84.5 -237t-214.5 -131v-61h-31v61q130 27 215 131t85 237t-84.5 237t-215.5 132v63h31v-63q130 -28 214.5 -132t84.5 -237zM409 429q0 -124 -87 -214t-211 -94v-121h-75v861h75v-124q124 -3 211 -93t87 -215zM334 429q0 93 -65 161t-158 72v-466
q93 5 158 72.5t65 160.5zM209 305q-14 -13 -31 -21v290q14 -6 31 -21v-248z" />
    <glyph glyph-name="Thorn" unicode="&#xfb01;" horiz-adv-x="544" 
d="M508 429q0 -133 -84.5 -237t-214.5 -131v-61h-31v61q130 27 215 131t85 237t-84.5 237t-215.5 132v63h31v-63q130 -28 214.5 -132t84.5 -237zM409 429q0 -124 -87 -214t-211 -94v-121h-75v861h75v-124q124 -3 211 -93t87 -215zM334 429q0 93 -65 161t-158 72v-466
q93 5 158 72.5t65 160.5zM209 305q-14 -13 -31 -21v290q14 -6 31 -21v-248z" />
    <glyph glyph-name="germandbls" unicode="&#xdf;" horiz-adv-x="770" 
d="M669 717h-31v144h31v-144zM734 208q0 -127 -96 -210h-30q96 83 96 210q0 106 -72 186l-124 138q-35 39 -35 86q0 41 28 69.5t69 28.5h29q-41 -3 -68.5 -30t-27.5 -68q0 -47 35 -86l124 -138q72 -80 72 -186zM270 533q-34 38 -34 85q0 50 34 74q-9 -36 -9 -74q0 -46 9 -85
zM636 208q0 -86 -61.5 -148t-147.5 -62q-65 0 -119 37q-55 -37 -117 -37q-93 0 -155 70l55 50q41 -44 100 -44q55 0 93.5 39.5t38.5 94.5q0 51 -34 89l-125 138q-71 78 -71 183q0 103 72.5 173t175.5 70v-77q-72 0 -122.5 -47t-50.5 -119q0 -73 53 -132l123 -137
q56 -62 56 -141q0 -67 -37 -118q30 -16 64 -16q55 0 94 39.5t39 94.5q0 50 -35 89l-124 138q-72 80 -72 183t72.5 173t175.5 70v-77q-72 0 -122.5 -47.5t-50.5 -118.5q0 -73 53 -132l124 -137q55 -61 55 -141zM492 208q0 -35 -30 -55q5 21 5 55q0 29 -6 59q20 -23 22 -26
q9 -14 9 -33z" />
    <glyph glyph-name="germandbls" unicode="&#xfb02;" horiz-adv-x="770" 
d="M669 717h-31v144h31v-144zM734 208q0 -127 -96 -210h-30q96 83 96 210q0 106 -72 186l-124 138q-35 39 -35 86q0 41 28 69.5t69 28.5h29q-41 -3 -68.5 -30t-27.5 -68q0 -47 35 -86l124 -138q72 -80 72 -186zM270 533q-34 38 -34 85q0 50 34 74q-9 -36 -9 -74q0 -46 9 -85
zM636 208q0 -86 -61.5 -148t-147.5 -62q-65 0 -119 37q-55 -37 -117 -37q-93 0 -155 70l55 50q41 -44 100 -44q55 0 93.5 39.5t38.5 94.5q0 51 -34 89l-125 138q-71 78 -71 183q0 103 72.5 173t175.5 70v-77q-72 0 -122.5 -47t-50.5 -119q0 -73 53 -132l123 -137
q56 -62 56 -141q0 -67 -37 -118q30 -16 64 -16q55 0 94 39.5t39 94.5q0 50 -35 89l-124 138q-72 80 -72 183t72.5 173t175.5 70v-77q-72 0 -122.5 -47.5t-50.5 -118.5q0 -73 53 -132l124 -137q55 -61 55 -141zM492 208q0 -35 -30 -55q5 21 5 55q0 29 -6 59q20 -23 22 -26
q9 -14 9 -33z" />
    <glyph glyph-name="agrave" unicode="&#xe0;" horiz-adv-x="840" 
d="M804 -1h-30l-324 862h31zM701 0h-80l-32 88h-440l-32 -88h-81l333 905zM227 19l-8 -20h-30l8 20h30zM560 163l-191 521l-192 -521h383zM405 390l-101 -158h-30l95 256zM414 927h-55l-183 204h114z" />
    <glyph glyph-name="aacute" unicode="&#xe1;" horiz-adv-x="840" 
d="M804 -1h-30l-324 862h31zM701 0h-80l-32 88h-440l-32 -88h-81l333 905zM227 19l-8 -20h-30l8 20h30zM560 163l-191 521l-192 -521h383zM405 390l-101 -158h-30l95 256zM574 1131l-183 -204h-55l124 204h114z" />
    <glyph glyph-name="acircumflex" unicode="&#xe2;" horiz-adv-x="840" 
d="M804 -1h-30l-324 862h31zM701 0h-80l-32 88h-440l-32 -88h-81l333 905zM227 19l-8 -20h-30l8 20h30zM560 163l-191 521l-192 -521h383zM405 390l-101 -158h-30l95 256zM559 892h-42l-145 119l-144 -119h-42l159 199h55z" />
    <glyph glyph-name="atilde" unicode="&#xe3;" horiz-adv-x="840" 
d="M804 -1h-30l-324 862h31zM701 0h-80l-32 88h-440l-32 -88h-81l333 905zM227 19l-8 -20h-30l8 20h30zM560 163l-191 521l-192 -521h383zM405 390l-101 -158h-30l95 256zM573 1016q0 -48 -31 -81t-78 -33q-18 0 -35 6l-128 42q-9 3 -18 3q-48 0 -60 -54h-17v7q-2 45 31 77
t79 32q17 0 33 -5l129 -42q10 -3 19 -3q44 0 55 40q1 4 3 11h18z" />
    <glyph glyph-name="adieresis" unicode="&#xe4;" horiz-adv-x="840" 
d="M804 -1h-30l-324 862h31zM701 0h-80l-32 88h-440l-32 -88h-81l333 905zM227 19l-8 -20h-30l8 20h30zM560 163l-191 521l-192 -521h383zM405 390l-101 -158h-30l95 256zM505 946q0 -24 -17 -41t-40 -17q-24 0 -41 17t-17 41q0 23 17 40t41 17q23 0 40 -17t17 -40zM346 946
q0 -24 -16.5 -41t-40.5 -17t-40.5 17t-16.5 41q0 23 17 40t40 17t40 -17t17 -40z" />
    <glyph glyph-name="aring" unicode="&#xe5;" horiz-adv-x="840" 
d="M804 -1h-30l-324 862h31zM701 0h-80l-32 88h-440l-32 -88h-81l333 905zM227 19l-8 -20h-30l8 20h30zM560 163l-191 521l-192 -521h383zM405 390l-101 -158h-30l95 256zM487 1003q0 -50 -35.5 -85.5t-85.5 -35.5t-86 35.5t-36 85.5t36 86t86 36t85.5 -36t35.5 -86z
M442 1003q0 32 -22.5 54.5t-53.5 22.5t-54 -22.5t-23 -54.5q0 -31 23 -53.5t54 -22.5t53.5 22.5t22.5 53.5z" />
    <glyph glyph-name="ae" unicode="&#xe6;" horiz-adv-x="1102" 
d="M1036 702h-200l-94 -305v320h263v144h31v-159zM1038 170h-265v-28h-31v43h265v212h31v-227zM1066 0h-30v142h30v-142zM975 0h-376v253h-300l-172 -253h-91l581 861h327v-77h-269v-455h271v-76h-271v-177h300v-76zM366 185l-127 -185h-30l126 185h31zM599 329v369
l-250 -369h250zM531 430l-23 -33h-30l53 79v-46z" />
    <glyph glyph-name="ccedilla" unicode="&#xe7;" horiz-adv-x="851" 
d="M795 772l-61 -91q-12 8 -22 13l62 93zM815 60l-22 -14l-81 122q16 8 22 13zM722 61q-109 -73 -243 -73q-183 0 -313 130t-130 312q0 183 130 313.5t313 130.5q131 0 243 -73l-41 -64q-90 60 -202 60q-152 0 -259.5 -107.5t-107.5 -259.5q0 -151 108 -258.5t259 -107.5
q110 0 202 60zM517 715q-119 -7 -201.5 -93.5t-82.5 -206.5q0 -150 123 -241q64 -38 139 -42h-16q-81 0 -153 42q-67 39 -106.5 107.5t-39.5 148.5q0 124 88 212t211 88q6 0 38 -15zM535 -166q0 -39 -51 -66.5t-123 -27.5h-35q-23 1 -34 1l-6 27h11q56 0 96.5 18.5
t40.5 43.5t-35.5 42.5t-87.5 19.5l75 127h61l-54 -93q60 -6 101 -32t41 -60z" />
    <glyph glyph-name="egrave" unicode="&#xe8;" horiz-adv-x="540" 
d="M475 700h-186l-109 -301v321h265v142h30v-162zM412 0h-376v862h346v-75h-269v-457h271v-75h-271v-180h299v-75zM475 186h-264v-42h-31v62h265v193h30v-213zM504 -1h-31v145h31v-145zM374 887h-55l-183 204h114z" />
    <glyph glyph-name="eacute" unicode="&#xe9;" horiz-adv-x="540" 
d="M475 700h-186l-109 -301v321h265v142h30v-162zM412 0h-376v862h346v-75h-269v-457h271v-75h-271v-180h299v-75zM475 186h-264v-42h-31v62h265v193h30v-213zM504 -1h-31v145h31v-145zM444 1091l-183 -204h-55l124 204h114z" />
    <glyph glyph-name="ecircumflex" unicode="&#xea;" horiz-adv-x="540" 
d="M475 700h-186l-109 -301v321h265v142h30v-162zM412 0h-376v862h346v-75h-269v-457h271v-75h-271v-180h299v-75zM475 186h-264v-42h-31v62h265v193h30v-213zM504 -1h-31v145h31v-145zM409 892h-42l-145 119l-144 -119h-42l159 199h55z" />
    <glyph glyph-name="edieresis" unicode="&#xeb;" horiz-adv-x="540" 
d="M475 700h-186l-109 -301v321h265v142h30v-162zM412 0h-376v862h346v-75h-269v-457h271v-75h-271v-180h299v-75zM475 186h-264v-42h-31v62h265v193h30v-213zM504 -1h-31v145h31v-145zM349 946q0 -24 -17 -41t-40 -17q-24 0 -41 17t-17 41q0 23 17 40t41 17q23 0 40 -17
t17 -40zM190 946q0 -24 -16.5 -41t-40.5 -17t-40.5 17t-16.5 41q0 23 17 40t40 17t40 -17t17 -40z" />
    <glyph glyph-name="igrave" unicode="&#xec;" horiz-adv-x="277" 
d="M241 863l-30 -863h-31v863h61zM111 0h-75v863h75v-863zM104 887h-55l-183 204h114z" />
    <glyph glyph-name="iacute" unicode="&#xed;" horiz-adv-x="277" 
d="M241 863l-30 -863h-31v863h61zM111 0h-75v863h75v-863zM284 1091l-183 -204h-55l124 204h114z" />
    <glyph glyph-name="icircumflex" unicode="&#xee;" horiz-adv-x="277" 
d="M241 863l-30 -863h-31v863h61zM111 0h-75v863h75v-863zM257 892h-42l-145 119l-144 -119h-42l159 199h55z" />
    <glyph glyph-name="idieresis" unicode="&#xef;" horiz-adv-x="277" 
d="M241 863l-30 -863h-31v863h61zM111 0h-75v863h75v-863zM209 946q0 -24 -17 -41t-40 -17q-24 0 -41 17t-17 41q0 23 17 40t41 17q23 0 40 -17t17 -40zM50 946q0 -24 -16.5 -41t-40.5 -17t-40.5 17t-16.5 41q0 23 17 40t40 17t40 -17t17 -40z" />
    <glyph glyph-name="eth" unicode="&#xf0;" horiz-adv-x="680" 
d="M644 430q0 -130 -65 -247.5t-176 -184.5h-30q110 67 175.5 184.5t65.5 247.5q0 129 -64.5 246t-173.5 185h31q109 -68 173 -185t64 -246zM545 430q0 -162 -107 -289q-110 -129 -270 -141l-41 -3v256h-91v76h91v535l41 -3q160 -12 270 -142q107 -126 107 -289zM470 430
q0 121 -75 222t-192 127v-450h110v-76h-110v-170q117 26 192 126t75 221zM320 639l-19 -242h-30v279q24 -14 49 -37zM389 253q-16 -22 -41 -47h-116v14h127v177h30v-144z" />
    <glyph glyph-name="eth" unicode="&#xf8ff;" horiz-adv-x="680" 
d="M644 430q0 -130 -65 -247.5t-176 -184.5h-30q110 67 175.5 184.5t65.5 247.5q0 129 -64.5 246t-173.5 185h31q109 -68 173 -185t64 -246zM545 430q0 -162 -107 -289q-110 -129 -270 -141l-41 -3v256h-91v76h91v535l41 -3q160 -12 270 -142q107 -126 107 -289zM470 430
q0 121 -75 222t-192 127v-450h110v-76h-110v-170q117 26 192 126t75 221zM320 639l-19 -242h-30v279q24 -14 49 -37zM389 253q-16 -22 -41 -47h-116v14h127v177h30v-144z" />
    <glyph glyph-name="ntilde" unicode="&#xf1;" horiz-adv-x="842" 
d="M806 -1h-30v842h30v-842zM570 343l-410 498h29l381 -462v-36zM710 -52l-600 738v-686h-74v893l600 -738v686h74v-893zM246 414l-40 -414h-29v499zM573 1006q0 -48 -31 -81t-78 -33q-18 0 -35 6l-128 42q-9 3 -18 3q-48 0 -60 -54h-17v7q-2 45 31 77t79 32q17 0 33 -5
l129 -42q10 -3 19 -3q44 0 55 40q1 4 3 11h18z" />
    <glyph glyph-name="ograve" unicode="&#xf2;" horiz-adv-x="1055" 
d="M1019 430q0 -134 -65 -250q-64 -112 -174 -181h-30q109 69 173 181q65 116 65 250t-65 250q-63 112 -172 182h30q109 -70 173 -182q65 -116 65 -250zM921 430q0 -182 -130.5 -312t-313.5 -130t-312 129.5t-129 312.5t129 313.5t312 130.5t313.5 -130.5t130.5 -313.5z
M844 430q0 152 -107.5 259.5t-259.5 107.5q-151 0 -258.5 -107.5t-107.5 -259.5q0 -151 107.5 -258.5t258.5 -107.5q152 0 259.5 107.5t107.5 258.5zM515 715q-118 -7 -200.5 -94t-82.5 -206q0 -150 122 -241q66 -38 139 -42h-16q-122 0 -209.5 87.5t-87.5 210.5
q0 124 87 212t210 88q6 0 38 -15zM544 897h-55l-183 204h114z" />
    <glyph glyph-name="oacute" unicode="&#xf3;" horiz-adv-x="1055" 
d="M1019 430q0 -134 -65 -250q-64 -112 -174 -181h-30q109 69 173 181q65 116 65 250t-65 250q-63 112 -172 182h30q109 -70 173 -182q65 -116 65 -250zM921 430q0 -182 -130.5 -312t-313.5 -130t-312 129.5t-129 312.5t129 313.5t312 130.5t313.5 -130.5t130.5 -313.5z
M844 430q0 152 -107.5 259.5t-259.5 107.5q-151 0 -258.5 -107.5t-107.5 -259.5q0 -151 107.5 -258.5t258.5 -107.5q152 0 259.5 107.5t107.5 258.5zM515 715q-118 -7 -200.5 -94t-82.5 -206q0 -150 122 -241q66 -38 139 -42h-16q-122 0 -209.5 87.5t-87.5 210.5
q0 124 87 212t210 88q6 0 38 -15zM704 1101l-183 -204h-55l124 204h114z" />
    <glyph glyph-name="ocircumflex" unicode="&#xf4;" horiz-adv-x="1055" 
d="M1019 430q0 -134 -65 -250q-64 -112 -174 -181h-30q109 69 173 181q65 116 65 250t-65 250q-63 112 -172 182h30q109 -70 173 -182q65 -116 65 -250zM921 430q0 -182 -130.5 -312t-313.5 -130t-312 129.5t-129 312.5t129 313.5t312 130.5t313.5 -130.5t130.5 -313.5z
M844 430q0 152 -107.5 259.5t-259.5 107.5q-151 0 -258.5 -107.5t-107.5 -259.5q0 -151 107.5 -258.5t258.5 -107.5q152 0 259.5 107.5t107.5 258.5zM515 715q-118 -7 -200.5 -94t-82.5 -206q0 -150 122 -241q66 -38 139 -42h-16q-122 0 -209.5 87.5t-87.5 210.5
q0 124 87 212t210 88q6 0 38 -15zM665 892h-42l-145 119l-144 -119h-42l159 199h55z" />
    <glyph glyph-name="otilde" unicode="&#xf5;" horiz-adv-x="1055" 
d="M1019 430q0 -134 -65 -250q-64 -112 -174 -181h-30q109 69 173 181q65 116 65 250t-65 250q-63 112 -172 182h30q109 -70 173 -182q65 -116 65 -250zM921 430q0 -182 -130.5 -312t-313.5 -130t-312 129.5t-129 312.5t129 313.5t312 130.5t313.5 -130.5t130.5 -313.5z
M844 430q0 152 -107.5 259.5t-259.5 107.5q-151 0 -258.5 -107.5t-107.5 -259.5q0 -151 107.5 -258.5t258.5 -107.5q152 0 259.5 107.5t107.5 258.5zM515 715q-118 -7 -200.5 -94t-82.5 -206q0 -150 122 -241q66 -38 139 -42h-16q-122 0 -209.5 87.5t-87.5 210.5
q0 124 87 212t210 88q6 0 38 -15zM653 1016q0 -48 -31 -81t-78 -33q-18 0 -35 6l-128 42q-9 3 -18 3q-48 0 -60 -54h-17v7q-2 45 31 77t79 32q17 0 33 -5l129 -42q10 -3 19 -3q44 0 55 40q1 4 3 11h18z" />
    <glyph glyph-name="otilde" unicode="&#x131;" horiz-adv-x="1055" 
d="M1019 430q0 -134 -65 -250q-64 -112 -174 -181h-30q109 69 173 181q65 116 65 250t-65 250q-63 112 -172 182h30q109 -70 173 -182q65 -116 65 -250zM921 430q0 -182 -130.5 -312t-313.5 -130t-312 129.5t-129 312.5t129 313.5t312 130.5t313.5 -130.5t130.5 -313.5z
M844 430q0 152 -107.5 259.5t-259.5 107.5q-151 0 -258.5 -107.5t-107.5 -259.5q0 -151 107.5 -258.5t258.5 -107.5q152 0 259.5 107.5t107.5 258.5zM515 715q-118 -7 -200.5 -94t-82.5 -206q0 -150 122 -241q66 -38 139 -42h-16q-122 0 -209.5 87.5t-87.5 210.5
q0 124 87 212t210 88q6 0 38 -15zM653 1016q0 -48 -31 -81t-78 -33q-18 0 -35 6l-128 42q-9 3 -18 3q-48 0 -60 -54h-17v7q-2 45 31 77t79 32q17 0 33 -5l129 -42q10 -3 19 -3q44 0 55 40q1 4 3 11h18z" />
    <glyph glyph-name="odieresis" unicode="&#xf6;" horiz-adv-x="1055" 
d="M1019 430q0 -134 -65 -250q-64 -112 -174 -181h-30q109 69 173 181q65 116 65 250t-65 250q-63 112 -172 182h30q109 -70 173 -182q65 -116 65 -250zM921 430q0 -182 -130.5 -312t-313.5 -130t-312 129.5t-129 312.5t129 313.5t312 130.5t313.5 -130.5t130.5 -313.5z
M844 430q0 152 -107.5 259.5t-259.5 107.5q-151 0 -258.5 -107.5t-107.5 -259.5q0 -151 107.5 -258.5t258.5 -107.5q152 0 259.5 107.5t107.5 258.5zM515 715q-118 -7 -200.5 -94t-82.5 -206q0 -150 122 -241q66 -38 139 -42h-16q-122 0 -209.5 87.5t-87.5 210.5
q0 124 87 212t210 88q6 0 38 -15zM613 946q0 -24 -17 -41t-40 -17q-24 0 -41 17t-17 41q0 23 17 40t41 17q23 0 40 -17t17 -40zM454 946q0 -24 -16.5 -41t-40.5 -17t-40.5 17t-16.5 41q0 23 17 40t40 17t40 -17t17 -40z" />
    <glyph glyph-name="divide" unicode="&#xf7;" 
 />
    <glyph glyph-name="oslash" unicode="&#xf8;" horiz-adv-x="1042" 
d="M1006 783l-96 -97q80 -121 80 -269q0 -129 -64 -242q-61 -108 -166 -176h-30q106 67 167 176q64 113 64 242q0 147 -81 269l96 97l-109 111h29zM894 417q0 -178 -125.5 -303.5t-303.5 -125.5q-155 0 -276 100l-79 -77l-51 52l78 78q-101 119 -101 276q0 177 126 302.5
t303 125.5q157 0 276 -100l78 78l52 -53l-78 -77q101 -120 101 -276zM689 692q-96 81 -224 81q-147 0 -251.5 -104.5t-104.5 -251.5q0 -126 80 -224zM821 417q0 125 -80 224l-501 -500q97 -80 225 -80q147 0 251.5 104t104.5 252zM738 515l-362 -362q47 -23 104 -26h-15
q-64 0 -119 26l383 383q4 -7 9 -21zM480 706q-115 -5 -195.5 -89t-80.5 -200q0 -46 17 -99l-20 -21q-26 57 -26 120q0 119 85.5 204.5t204.5 85.5h8q5 -1 7 -1z" />
    <glyph glyph-name="ugrave" unicode="&#xf9;" horiz-adv-x="862" 
d="M826 345q0 -105 -52 -199q-51 -90 -137 -147h-31q87 56 138.5 148t51.5 198v517h30v-517zM727 345q0 -142 -101.5 -243.5t-243.5 -101.5q-143 0 -244.5 101.5t-101.5 243.5v517h76v-517q0 -111 79 -190.5t191 -79.5q110 0 190 79.5t80 190.5v517h75v-517zM397 144h-15
q-83 0 -143 59t-60 142v517h84l-53 -517q0 -78 54.5 -136t132.5 -65zM484 887h-55l-183 204h114z" />
    <glyph glyph-name="ugrave" unicode="&#x2d8;" horiz-adv-x="862" 
d="M826 345q0 -105 -52 -199q-51 -90 -137 -147h-31q87 56 138.5 148t51.5 198v517h30v-517zM727 345q0 -142 -101.5 -243.5t-243.5 -101.5q-143 0 -244.5 101.5t-101.5 243.5v517h76v-517q0 -111 79 -190.5t191 -79.5q110 0 190 79.5t80 190.5v517h75v-517zM397 144h-15
q-83 0 -143 59t-60 142v517h84l-53 -517q0 -78 54.5 -136t132.5 -65zM484 887h-55l-183 204h114z" />
    <glyph glyph-name="uacute" unicode="&#xfa;" horiz-adv-x="862" 
d="M826 345q0 -105 -52 -199q-51 -90 -137 -147h-31q87 56 138.5 148t51.5 198v517h30v-517zM727 345q0 -142 -101.5 -243.5t-243.5 -101.5q-143 0 -244.5 101.5t-101.5 243.5v517h76v-517q0 -111 79 -190.5t191 -79.5q110 0 190 79.5t80 190.5v517h75v-517zM397 144h-15
q-83 0 -143 59t-60 142v517h84l-53 -517q0 -78 54.5 -136t132.5 -65zM594 1091l-183 -204h-55l124 204h114z" />
    <glyph glyph-name="uacute" unicode="&#x2d9;" horiz-adv-x="862" 
d="M826 345q0 -105 -52 -199q-51 -90 -137 -147h-31q87 56 138.5 148t51.5 198v517h30v-517zM727 345q0 -142 -101.5 -243.5t-243.5 -101.5q-143 0 -244.5 101.5t-101.5 243.5v517h76v-517q0 -111 79 -190.5t191 -79.5q110 0 190 79.5t80 190.5v517h75v-517zM397 144h-15
q-83 0 -143 59t-60 142v517h84l-53 -517q0 -78 54.5 -136t132.5 -65zM594 1091l-183 -204h-55l124 204h114z" />
    <glyph glyph-name="ucircumflex" unicode="&#xfb;" horiz-adv-x="862" 
d="M826 345q0 -105 -52 -199q-51 -90 -137 -147h-31q87 56 138.5 148t51.5 198v517h30v-517zM727 345q0 -142 -101.5 -243.5t-243.5 -101.5q-143 0 -244.5 101.5t-101.5 243.5v517h76v-517q0 -111 79 -190.5t191 -79.5q110 0 190 79.5t80 190.5v517h75v-517zM397 144h-15
q-83 0 -143 59t-60 142v517h84l-53 -517q0 -78 54.5 -136t132.5 -65zM579 892h-42l-145 119l-144 -119h-42l159 199h55z" />
    <glyph glyph-name="udieresis" unicode="&#xfc;" horiz-adv-x="862" 
d="M826 345q0 -105 -52 -199q-51 -90 -137 -147h-31q87 56 138.5 148t51.5 198v517h30v-517zM727 345q0 -142 -101.5 -243.5t-243.5 -101.5q-143 0 -244.5 101.5t-101.5 243.5v517h76v-517q0 -111 79 -190.5t191 -79.5q110 0 190 79.5t80 190.5v517h75v-517zM397 144h-15
q-83 0 -143 59t-60 142v517h84l-53 -517q0 -78 54.5 -136t132.5 -65zM539 946q0 -24 -17 -41t-40 -17q-24 0 -41 17t-17 41q0 23 17 40t41 17q23 0 40 -17t17 -40zM380 946q0 -24 -16.5 -41t-40.5 -17t-40.5 17t-16.5 41q0 23 17 40t40 17t40 -17t17 -40z" />
    <glyph glyph-name="yacute" unicode="&#xfd;" horiz-adv-x="990" 
d="M954 862l-475 -863h-30l475 863h30zM518 565l-10 -21l-281 318h83zM845 862l-472 -862h-87l195 355l-445 507h101l383 -436l239 436h86zM694 1091l-183 -204h-55l124 204h114z" />
    <glyph glyph-name="yacute" unicode="&#x2dd;" horiz-adv-x="990" 
d="M954 862l-475 -863h-30l475 863h30zM518 565l-10 -21l-281 318h83zM845 862l-472 -862h-87l195 355l-445 507h101l383 -436l239 436h86zM694 1091l-183 -204h-55l124 204h114z" />
    <glyph glyph-name="thorn" unicode="&#xfe;" horiz-adv-x="544" 
d="M508 429q0 -133 -84.5 -237t-214.5 -131v-61h-31v61q130 27 215 131t85 237t-84.5 237t-215.5 132v63h31v-63q130 -28 214.5 -132t84.5 -237zM409 429q0 -124 -87 -214t-211 -94v-121h-75v861h75v-124q124 -3 211 -93t87 -215zM334 429q0 93 -65 161t-158 72v-466
q93 5 158 72.5t65 160.5zM209 305q-14 -13 -31 -21v290q14 -6 31 -21v-248z" />
    <glyph glyph-name="thorn" unicode="&#x2db;" horiz-adv-x="544" 
d="M508 429q0 -133 -84.5 -237t-214.5 -131v-61h-31v61q130 27 215 131t85 237t-84.5 237t-215.5 132v63h31v-63q130 -28 214.5 -132t84.5 -237zM409 429q0 -124 -87 -214t-211 -94v-121h-75v861h75v-124q124 -3 211 -93t87 -215zM334 429q0 93 -65 161t-158 72v-466
q93 5 158 72.5t65 160.5zM209 305q-14 -13 -31 -21v290q14 -6 31 -21v-248z" />
    <glyph glyph-name="ydieresis" unicode="&#xff;" horiz-adv-x="990" 
d="M954 862l-475 -863h-30l475 863h30zM518 565l-10 -21l-281 318h83zM845 862l-472 -862h-87l195 355l-445 507h101l383 -436l239 436h86zM629 946q0 -24 -17 -41t-40 -17q-24 0 -41 17t-17 41q0 23 17 40t41 17q23 0 40 -17t17 -40zM470 946q0 -24 -16.5 -41t-40.5 -17
t-40.5 17t-16.5 41q0 23 17 40t40 17t40 -17t17 -40z" />
    <glyph glyph-name="caron" unicode="&#x2c7;" horiz-adv-x="445" 
d="M409 1088l-159 -199h-55l-159 199h42l145 -119l144 119h42z" />
    <glyph glyph-name="ring" unicode="&#x2da;" horiz-adv-x="315" 
d="M279 1003q0 -50 -35.5 -85.5t-85.5 -35.5t-86 35.5t-36 85.5t36 86t86 36t85.5 -36t35.5 -86zM234 1003q0 32 -22.5 54.5t-53.5 22.5t-54 -22.5t-23 -54.5q0 -31 23 -53.5t54 -22.5t53.5 22.5t22.5 53.5z" />
    </font>
</defs>
</svg>
